<svg xmlns="http://www.w3.org/2000/svg" xmlns:xlink="http://www.w3.org/1999/xlink" width="400pt" height="400pt" viewBox="0 0 595.276 841.89" fillRule="evenodd">
<g>

<g>
<path style="stroke:#434140; strokeWidth:0.32; fill:#ffffff" d="M 288.909 622.142C 286.449 619.056 283.01 614.591 283.296 615.441C 290.999 638.347 291.088 648.433 290.851 657.079C 288.042 759.461 223.229 789.419 166.835 789.332C 95.9641 789.223 45.4148 742.261 42.2516 655.119C 41.757 641.493 44.3755 632.391 46.2093 623.985C 48.0707 615.452 50.6235 608.751 57.1213 599.15C 52.4638 607.181 40.9329 615.076 38.6072 647.517C 38.6072 647.517 35.2395 648.846 32.1277 646.159C 35.9343 617.692 52.3713 594.531 64.9798 583.598C 73.8729 567.094 109.367 535.89 117.044 539.62C 93.6787 558.688 71.4266 576.945 58.0512 600C 48.9072 615.762 44.3381 634.12 44.7133 655.112C 46.4771 753.781 116.49 785.523 166.199 785.37C 271.758 785.044 288.668 693.266 287.459 652.697C 285.016 570.75 216.415 544.5 218.907 538.368C 258.68 566.527 265.265 580.8 274.2 594.378C 283.364 600.679 290.242 612.343 296.348 621.007"/>
<path style="stroke:none; fill:#b3b1b1" d="M 288.501 654.456C 287.369 737.18 244.39 784.116 167.168 784.764C 127.609 785.096 94.6804 770.127 73.1939 743.15C 54.8073 720.065 44.2076 685.502 44.8586 652.118C 45.2497 632.063 49.597 613.554 58.4975 599.465C 63.0998 592.18 65.4193 585.568 68.9917 579.378C 69.2989 578.846 68.0818 579.725 68.4471 579.193C 71.1517 575.257 76.7751 570.025 80.5267 565.861C 82.9 563.226 97.5387 549.83 100.536 547.54C 123.228 530.2 146.1 531.804 166.538 532.087C 179.646 532.269 201.097 529.591 218.139 542.514C 232.603 553.483 240.721 559.038 251.873 569.796C 259.873 577.514 264.257 583.046 267.504 587.959C 268.872 590.029 270.396 592.101 272.161 594.524C 272.761 595.348 273.134 596.412 273.22 596.582C 281.797 613.468 287.794 634.06 288.501 654.456z"/>
<path style="stroke:#5a6371; strokeWidth:0.6776; fill:none" d="M 222.099 539.698C 253.423 564.372 264.401 577.175 274.375 594.699C 283.863 601.718 291.24 615.614 296.603 621.646L 290.508 625.295C 287.919 620.842 283.037 614.899 283.298 615.758C 286.56 626.515 291.021 640.958 290.783 656.434C 289.213 758.848 223.162 788.796 166.768 788.687C 96.0451 788.55 44.751 741.438 42.1839 654.474C 41.7392 639.411 44.169 630.265 46.9221 621.751C 49.1481 614.868 51.8807 605.715 57.1939 597.975C 49.2871 609.432 41.3652 621.44 38.4071 647.295C 38.4071 647.295 34.7939 649.025 31.8444 646.114C 34.3979 623.793 51.8458 596.675 62.1685 585.753C 76.6986 565.629 98.2657 546.376 110.584 539.664"/>
<defs><linearGradient id="1" x1="101.038" y1="855.577" x2="43.8921" y2="821.323" gradientUnits="userSpaceOnUse">
<stop offset="0" style="stop-color:#f7d7d4"/>
<stop offset="1" style="stop-color:#f5ecea"/>
</linearGradient>
</defs><path style="stroke:none; fill:url(#1)" d="M 46.8101 860.311C 46.8101 859.672 51.3638 848.141 54.0459 841.838C 55.5602 838.28 58.721 831.113 61.0699 825.912L 65.3408 816.455L 98.1157 836.208C 98.2246 836.339 96.2435 841.703 93.7134 848.128L 88.8837 860.445L 46.8101 860.311z"/>
</g>
<g>
<path style="stroke:#6c6c6b; strokeWidth:0.677333; fill:#ffffff" d="M 285.997 655.528C 289.853 734.462 234.065 783.325 167.006 782.983C 155.181 782.922 139.574 780.775 125.307 775.219C 125.135 775.137 124.135 775.418 124.059 776.132C 121.324 789.512 109.341 814.08 99.1723 836.04C 89.8212 830.844 77.5366 823.865 64.9843 815.635C 78.2816 787.968 83.0162 779.839 96.5083 762.482C 97.0813 761.788 96.5909 760.738 96.2966 760.487C 64.2332 730.985 47.537 701.376 47.3099 653.455C 47.1832 626.708 51.0154 614.167 68.3701 586.109C 57.5497 595.832 40.6854 616.811 38.5788 647.102C 38.5788 647.102 33.8815 650.799 32.1278 645.821C 36.0226 619.825 56.5394 588.432 69.8273 579.299C 78.5054 570.955 103.408 542.876 112.275 539.211C 112.531 554.925 141.948 562.691 165.948 562.691C 189.948 562.691 221.834 557.942 221.404 539.499C 228.716 542.774 262.656 575.878 271.978 592.216C 280.229 598.055 291.74 613.267 296.219 620.991C 295.323 623.771 291.219 624.746 289.649 624.744C 287.679 621.417 280.854 610.467 278.38 607.794C 282.196 630.119 284.461 624.1 285.997 655.528z"/>
<path style="stroke:none; fill:#cdd2e7" d="M 113.47 537.729C 112.203 541.315 111.356 546.012 112.281 549.625C 114.352 550.71 108.775 552.115 113.214 550.254C 121.874 545.04 148.59 537.043 166.961 536.692C 181.9 536.406 200.516 541.929 210.984 546.041C 215.73 548.474 218.575 550.668 220.74 550.6C 221.173 548.074 222.006 542.569 221.146 537.944C 199.164 519.018 187.913 510.123 167.563 510.053C 147.099 509.983 134.59 519.67 113.47 537.729z"/>
<path style="stroke:none; fill:#d3d4d4" d="M 116.605 545.943C 141.579 526.967 195.19 527.938 217.978 547.592C 213.868 543.369 212.194 540.465 209.316 537.121C 200.314 526.663 182.649 517.549 166.962 517.564C 152.964 517.577 139.428 524.979 129.204 535.087C 126.93 537.336 123.749 537.513 116.355 545.914"/>
<path style="stroke:#819470; strokeWidth:0.8; strokeLinecap:round; fill:none" d="M 118.547 544.564C 153.732 528.863 181.601 530.966 215.742 545.308"/>
<path style="stroke:#667157; strokeWidth:0.687822; strokeLinecap:round; fill:#cececf" d="M 218.361 544.553C 218.08 544.84 218.369 545.599 219.006 546.246C 219.644 546.893 220.39 547.185 220.671 546.897C 220.953 546.609 220.664 545.851 220.027 545.204C 219.389 544.557 218.643 544.265 218.361 544.553z"/>
<path style="stroke:#242423; strokeWidth:0.677333; fill:none" d="M 221.474 539.26C 207.724 523.665 187.546 510.465 166.701 510.495C 145.956 510.524 126.015 524.371 112.281 539.275"/>
<g>
<path style="stroke:#667157; strokeWidth:0.517517; strokeLinecap:round; fill:#cececf" d="M 217.836 546.116L 218.395 546.833"/>
<path style="stroke:#667157; strokeWidth:0.517517; strokeLinecap:round; fill:#cececf" d="M 218.896 547.301L 219.764 548.276"/>
<path style="stroke:#667157; strokeWidth:0.258759; strokeLinecap:round; fill:#cececf" d="M 218.752 546.161L 217.286 547.301"/>
<path style="stroke:#667157; strokeWidth:0.258759; strokeLinecap:round; fill:#cececf" d="M 219.629 546.943L 218.106 548.138"/>
</g>
<path style="stroke:#667157; strokeWidth:0.81175; strokeLinecap:round; fill:#cececf" d="M 115.343 543.676C 115.603 543.929 115.259 544.538 114.575 545.035C 113.891 545.533 113.125 545.732 112.865 545.479C 112.606 545.227 112.95 544.618 113.634 544.12C 114.318 543.622 115.083 543.424 115.343 543.676z"/>
<g>
<path style="stroke:#667157; strokeWidth:0.517517; strokeLinecap:round; fill:#cececf" d="M 116.126 544.762L 115.567 545.479"/>
<path style="stroke:#667157; strokeWidth:0.517517; strokeLinecap:round; fill:#cececf" d="M 115.065 545.948L 114.197 546.922"/>
<path style="stroke:#667157; strokeWidth:0.258759; strokeLinecap:round; fill:#cececf" d="M 115.21 544.808L 116.675 545.948"/>
<path style="stroke:#667157; strokeWidth:0.258759; strokeLinecap:round; fill:#cececf" d="M 114.332 545.59L 115.856 546.785"/>
</g>
<path style="stroke:#b590bb; strokeWidth:0.8; fill:none" d="M 64.9909 815.667C 58.3341 831.295 51.6983 844.057 46.192 860.534"/>
<path style="stroke:#b590bb; strokeWidth:0.8; fill:none" d="M 99.0611 835.98L 89.4998 860.355"/>
<path style="stroke:#6c6c6b; strokeWidth:0.677333; fill:none" d="M 96.1165 834.058C 101.345 823.217 106.162 813.275 111.238 801.587C 115.437 792.895 122.312 772.83 123.957 764.902C 142.461 777.155 198.572 780.226 235.358 751.214C 256.239 734.745 273.028 712.319 279.03 674.09C 282.933 649.228 279.845 628.4 273.519 611.254C 261.403 578.411 236.869 558.895 220.134 550.759C 216.486 545.95 211.731 540.171 208.853 536.827C 199.851 526.369 184.735 517.466 166.853 517.438C 149.27 517.411 138.965 524.685 128.742 534.793C 126.467 537.042 118.015 544.048 112.639 550.325C 110.613 550.686 76.6004 571.195 61.2953 608.897C 56.4095 620.933 52.9342 634.817 52.84 649.471C 52.7471 663.934 55.9689 679.147 61.2192 694.071C 68.63 715.137 84.1044 740.482 106.408 755.259C 100.482 762.091 90.3065 776.418 85.5455 784.747C 78.6157 796.869 73.6318 806.731 68.5726 817.533"/>
<defs><linearGradient id="2" x1="133.43" y1="818.711" x2="58.8494" y2="770.163" gradientUnits="userSpaceOnUse">
<stop offset="0" style="stop-color:#b6b6b6"/>
<stop offset="2.12401e-06" style="stop-color:#b6b6b6"/>
<stop offset="1" style="stop-color:#b6b6b6"/>
</linearGradient>
</defs><path style="stroke:none; fill:url(#2)" d="M 123.089 766.098C 119.413 781.269 114.864 793.128 105.197 814.2C 100.451 824.544 95.8141 833.697 95.4528 833.763C 95.0916 833.83 90.6216 831.321 86.4243 828.147L 86.4243 828.147L 86.4243 828.147C 76.0709 822.068 68.6486 818.172 68.6486 817.784C 68.6486 817.073 76.702 800.479 81.2423 792.21C 88.2627 779.422 95.9949 768.613 103.829 758.548C 104.684 757.449 105.326 756.763 105.853 756.176C 106.211 755.776 106.533 755.482 106.472 755.109C 111.817 759.309 117.682 762.068 123.631 764.595"/>
<path style="stroke:#6c6c6b; strokeWidth:0.677333; fill:none" d="M 106.229 755.032C 113.497 760.894 123.993 764.965 124.078 765.177"/>
<defs><radialGradient id="3" cx="166.828" cy="661.007" r="159.681" fx="166.828" fy="661.007" gradientUnits="userSpaceOnUse">
<stop offset="0" style="stop-color:#afafae"/>
<stop offset="0.999999" style="stop-color:#4d4b4a"/>
<stop offset="1" style="stop-color:#4d4b4a"/>
</radialGradient>
</defs><path style="stroke:none; fill:url(#3)" d="M 106.158 755.123C 89.8373 743.54 77.1503 727.488 66.7118 706.411C 61.5903 696.07 56.3921 678.979 54.2031 665.158C 53.0851 658.099 53.0691 642.258 54.1729 635.571C 58.0568 612.042 66.942 592.86 82.9929 574.916C 92.2791 564.534 102.137 556.211 112.208 550.857L 116.328 548.66L 118.144 550.382C 122.283 554.308 132.292 558.535 143.114 560.839C 152.069 562.747 158.5 563.139 171.187 562.821C 192.774 562.279 207.246 558.51 215.4 551.878C 217.567 550.115 219.267 549.832 219.568 550.712C 219.652 550.957 221.638 551.587 223.782 552.77C 231.478 557.014 237.958 561.968 245.107 568.727C 264.397 586.966 276.45 610.989 279.723 638.472C 280.624 646.037 280.457 663.407 279.329 671.168C 275.06 700.539 264.303 723.404 246.851 740.54C 240.738 746.543 236.613 750.305 231.045 753.93C 217.902 762.485 202.043 769.851 183.023 772.184C 165.973 774.275 154.037 773.176 146.635 771.879C 139.48 770.625 128.133 767.115 123.733 764.946"/>
</g>
<g>
<path style="stroke:#242423; strokeWidth:0.677333; fill:#ef9258" d="M 274.693 653.195C 274.693 716.904 226.414 768.55 166.858 768.55C 144.321 768.55 124.34 760.387 107.256 747.737C 79.1953 726.958 61.8969 692.389 60.158 652.835C 57.1302 583.963 108.147 536.973 167.993 537.48C 191.022 537.675 210.895 546.127 228.748 558.718C 257.963 579.32 278.251 613.464 274.693 653.195z"/>
<path style="stroke:#a82f2d; strokeWidth:0.24; fill:#c96f3d" d="M 216.658 555.396C 174.71 549.024 162.152 549.087 113.9 556.986L 114.102 556.838L 113.81 556.986L 113.765 556.986L 113.652 557.06L 100.912 563.473C 94.9854 567.693 91.7138 566.785 82.8731 578.025C 73.7189 590.816 77.4298 595.383 85.6684 580.361C 75.8043 594.3 88.8913 591.444 93.2505 579.874C 85.853 591.995 93.6347 594.022 99.0527 580.476C 93.3171 591.483 102.652 594.089 106.431 579.795C 101.079 593.339 111.484 593.003 113.115 580.265C 109.489 594.169 119.082 592.808 121.356 578.679C 117.182 592.665 127.303 595.306 128.506 579.525C 125.521 594.6 137.328 594.272 137.868 579.613C 135.427 593.858 146.609 596.885 147.816 579.546C 145.604 595.007 157.206 595.592 156.858 579.825C 155.452 595.135 167.13 596.843 165.337 580.926C 165.401 598.132 177.138 593.542 174.86 580.307C 175.318 598.242 185.704 595.564 183.935 581.971C 183.712 599.201 197.882 596.658 193.364 583.147C 195.685 600.922 207.793 597.035 203.376 582.889C 205.407 600.063 220.046 599.406 214.316 586.038C 218.108 602.402 231.052 599.332 225.937 587.548C 230.35 603.717 239.699 599.93 235.631 588.142C 238.763 601.101 251.865 605.2 245.266 589.816C 251.17 605.467 257.645 604.92 250.796 589.802C 256.418 604.986 264.317 607.181 256.607 590.572C 265.359 607.065 269.128 609.471 261.29 593.799C 260.269 588.3 245.133 574.94 235.139 565.063L 216.658 555.396L 216.658 555.396L 216.658 555.396z"/>
<path style="stroke:#a82f2d; strokeWidth:0.24; fill:none" d="M 85.5484 580.54L 87.2113 578.189"/>
<path style="stroke:#a82f2d; strokeWidth:0.24; fill:#d3d4d4" d="M 128.429 579.636L 129.92 575.829"/>
<path style="stroke:#a82f2d; strokeWidth:0.24; fill:#d3d4d4" d="M 137.681 580.09L 139.573 573.99"/>
<path style="stroke:#a82f2d; strokeWidth:0.24; fill:#d3d4d4" d="M 147.542 580.078L 149.047 576.167"/>
<path style="stroke:#a82f2d; strokeWidth:0.24; fill:#d3d4d4" d="M 156.774 580.094L 156.865 576.972"/>
<defs><linearGradient id="4" x1="176.717" y1="592.294" x2="174.086" y2="592.294" gradientUnits="userSpaceOnUse">
<stop offset="0" style="stop-color:#c94346"/>
<stop offset="0.000300117" style="stop-color:#c94346"/>
<stop offset="0.110288" style="stop-color:#b54346"/>
<stop offset="1" style="stop-color:#874d4d"/>
</linearGradient>
</defs><path style="stroke:#a82f2d; strokeWidth:0.24; fill:url(#4)" d="M 175.459 592.612L 175.344 591.977"/>
<defs><linearGradient id="5" x1="186.56" y1="586.005" x2="183.171" y2="586.005" gradientUnits="userSpaceOnUse">
<stop offset="0" style="stop-color:#c94346"/>
<stop offset="0.000234796" style="stop-color:#c94346"/>
<stop offset="0.110211" style="stop-color:#b54346"/>
<stop offset="1" style="stop-color:#874d4d"/>
</linearGradient>
</defs><path style="stroke:#a82f2d; strokeWidth:0.24; fill:url(#5)" d="M 184.429 583.088L 185.302 588.923"/>
<path style="stroke:#a82f2d; strokeWidth:0.24; fill:none" d="M 195.055 588.363L 193.135 580.743"/>
<path style="stroke:#a82f2d; strokeWidth:0.24; fill:none" d="M 204.779 589.283L 200.973 578.178"/>
<path style="stroke:#a82f2d; strokeWidth:0.24; fill:none" d="M 216.572 593.502L 213.762 583.463"/>
<path style="stroke:#a82f2d; strokeWidth:0.24; fill:none" d="M 225.412 590.469L 222.715 582.468"/>
<path style="stroke:#a82f2d; strokeWidth:0.24; fill:none" d="M 234.766 590.622L 231.049 582.612"/>
<path style="stroke:#a82f2d; strokeWidth:0.24; fill:none" d="M 245.988 594.328L 237.215 578.57"/>
<path style="stroke:#a82f2d; strokeWidth:0.24; fill:none" d="M 99.0195 580.576C 100.891 577.858 101.736 577.454 101.736 577.454"/>
<path style="stroke:#a82f2d; strokeWidth:0.24; fill:none" d="M 106.341 580.032C 107.655 576.938 108.406 576.347 108.406 576.347"/>
<path style="stroke:#a82f2d; strokeWidth:0.24; fill:none" d="M 113.05 580.413C 114.364 577.32 115.114 576.728 115.115 576.728"/>
<path style="stroke:#a82f2d; strokeWidth:0.24; fill:none" d="M 121.135 579.333C 122.449 576.239 123.199 575.648 123.2 575.648"/>
<path style="stroke:#a82f2d; strokeWidth:0.24; fill:none" d="M 92.9714 580.344C 95.0926 577.861 95.9722 577.559 95.9722 577.559"/>
<path style="stroke:none; fill:#e07a5d" d="M 185.548 761.109C 186.448 761.827 182.802 763.773 180.31 764.447C 178.433 764.956 174.574 763.171 174.474 762.386C 174.319 761.17 177.174 759.591 179.878 759.156C 182.533 758.729 184.046 759.911 185.548 761.109z"/>
</g>
<g>
<g>
<path style="stroke:none; fill:#a24445" d="M 156.456 564.14C 153.016 571.724 152.278 579.172 151.593 578.795C 151.211 578.585 151.558 572.055 151.669 562.874C 151.738 557.09 153.037 552.795 154.352 551.136C 154.979 550.346 155.697 550.635 156.124 550.748C 156.548 550.86 157.484 551.3 157.893 552.397C 158.76 554.723 158.696 559.203 156.456 564.14z"/>
<path style="stroke:none; fill:#823435" d="M 156.456 563.725C 152.99 571.711 152.341 578.256 151.593 578.38C 151.89 576.675 152.909 571.527 155.262 562.69C 157.37 554.777 156.604 553.053 156.124 550.333C 157.292 550.698 157.436 549.78 158.028 552.689C 158.536 555.188 158.346 559.371 156.456 563.725z"/>
<path style="stroke:none; fill:#b6b6b6" d="M 155.88 551.475C 155.803 551.951 155.438 552.257 155.066 552.159C 154.695 552.061 154.455 551.594 154.532 551.119C 154.609 550.643 154.973 550.336 155.345 550.435C 155.717 550.533 155.956 550.999 155.88 551.475z"/>
</g>
<g>
<path style="stroke:none; fill:#a24445" d="M 162.28 564.322C 159.55 572.396 159.491 579.931 158.776 579.658C 158.378 579.505 158.131 572.942 157.409 563.773C 156.954 557.995 157.856 553.52 159.012 551.67C 159.562 550.789 160.302 550.971 160.736 551.02C 161.167 551.068 162.137 551.367 162.642 552.4C 163.715 554.59 164.057 559.067 162.28 564.322z"/>
<path style="stroke:none; fill:#823435" d="M 162.28 564.322C 159.56 572.8 159.508 579.422 158.776 579.658C 158.917 577.914 159.463 572.629 161 563.468C 162.376 555.265 161.459 553.66 160.736 551.02C 161.929 551.209 161.989 550.273 162.84 553.085C 163.572 555.501 163.762 559.7 162.28 564.322z"/>
<path style="stroke:none; fill:#b6b6b6" d="M 160.721 551.747C 160.687 552.233 160.353 552.593 159.975 552.55C 159.597 552.507 159.317 552.078 159.35 551.592C 159.383 551.107 159.717 550.747 160.095 550.79C 160.474 550.832 160.754 551.261 160.721 551.747z"/>
<path style="stroke:none; fill:#b6b6b6" d="M 161.79 553.673C 161.757 554.159 161.423 554.519 161.045 554.476C 160.666 554.433 160.386 554.004 160.419 553.519C 160.453 553.033 160.787 552.673 161.165 552.716C 161.543 552.758 161.824 553.187 161.79 553.673z"/>
</g>
<g>
<path style="stroke:none; fill:#a24445" d="M 167.309 562.717C 165.139 570.803 165.595 578.08 164.864 577.893C 164.457 577.79 163.764 571.485 162.42 562.717C 161.573 557.193 162.165 552.777 163.191 550.866C 163.679 549.956 164.428 550.051 164.864 550.051C 165.297 550.051 166.283 550.233 166.857 551.175C 168.075 553.171 168.721 557.453 167.309 562.717z"/>
<path style="stroke:none; fill:#823435" d="M 167.309 562.717C 165.177 571.192 165.577 577.587 164.864 577.893C 164.885 576.196 165.069 571.037 165.975 562.032C 166.787 553.968 165.765 552.519 164.864 550.051C 166.066 550.104 166.061 549.194 167.101 551.814C 167.994 554.065 168.471 558.096 167.309 562.717z"/>
</g>
<g>
<path style="stroke:none; fill:#a24445" d="M 172.499 562.894C 171.081 571.804 172.197 579.46 171.454 579.372C 171.04 579.324 169.776 572.735 167.642 563.63C 166.297 557.894 166.483 553.117 167.328 550.935C 167.731 549.894 168.483 549.882 168.916 549.817C 169.346 549.752 170.343 549.797 170.999 550.709C 172.391 552.645 173.423 557.093 172.499 562.894z"/>
<path style="stroke:none; fill:#823435" d="M 172.499 562.894C 171.154 572.212 172.134 578.939 171.454 579.372C 171.32 577.567 171.032 572.064 171.112 562.368C 171.184 553.685 170.036 552.301 168.916 549.817C 170.115 549.692 170.028 548.727 171.3 551.351C 172.392 553.607 173.233 557.814 172.499 562.894z"/>
<path style="stroke:none; fill:#b6b6b6" d="M 168.447 551.576C 168.49 552.077 168.219 552.531 167.842 552.588C 167.464 552.645 167.123 552.285 167.08 551.783C 167.037 551.282 167.308 550.828 167.686 550.771C 168.063 550.714 168.404 551.074 168.447 551.576z"/>
<path style="stroke:none; fill:#b6b6b6" d="M 170.65 551.452C 170.693 551.954 170.421 552.407 170.044 552.464C 169.667 552.521 169.326 552.161 169.282 551.659C 169.239 551.158 169.511 550.704 169.888 550.647C 170.265 550.59 170.607 550.951 170.65 551.452z"/>
</g>
<g>
<path style="stroke:none; fill:#a24445" d="M 177.664 562.223C 176.681 570.627 178.165 577.662 177.419 577.64C 177.004 577.627 175.424 571.598 172.853 563.295C 171.233 558.065 171.187 553.605 171.924 551.507C 172.276 550.507 173.027 550.436 173.455 550.34C 173.881 550.245 174.878 550.207 175.577 551.005C 177.06 552.695 178.305 556.751 177.664 562.223z"/>
<path style="stroke:none; fill:#823435" d="M 177.664 562.223C 176.773 571.001 178.077 577.183 177.419 577.64C 177.198 575.971 176.644 570.873 176.255 561.844C 175.906 553.759 174.693 552.563 173.455 550.34C 174.646 550.128 174.512 549.237 175.908 551.578C 177.108 553.589 178.15 557.437 177.664 562.223z"/>
<path style="stroke:none; fill:#b6b6b6" d="M 173.515 550.951C 173.583 551.414 173.334 551.857 172.96 551.941C 172.586 552.024 172.228 551.716 172.161 551.252C 172.094 550.789 172.343 550.346 172.716 550.262C 173.09 550.179 173.448 550.487 173.515 550.951z"/>
</g>
<g>
<path style="stroke:none; fill:#a24445" d="M 182.774 563.562C 182.262 572.474 184.135 579.726 183.389 579.77C 182.975 579.794 181.062 573.606 178.034 565.122C 176.126 559.776 175.832 555.098 176.451 552.829C 176.745 551.748 177.49 551.605 177.913 551.466C 178.332 551.328 179.325 551.199 180.066 551.973C 181.64 553.614 183.108 557.76 182.774 563.562z"/>
<path style="stroke:none; fill:#823435" d="M 182.774 563.562C 182.375 572.858 184.021 579.23 183.389 579.77C 183.076 578.037 182.239 572.735 181.347 563.292C 180.548 554.835 179.272 553.688 177.913 551.466C 179.088 551.137 178.905 550.214 180.429 552.545C 181.737 554.549 182.992 558.494 182.775 563.562L 182.774 563.562z"/>
<path style="stroke:none; fill:#b6b6b6" d="M 178.486 551.998C 178.579 552.479 178.356 552.967 177.987 553.088C 177.619 553.209 177.245 552.918 177.152 552.438C 177.059 551.957 177.282 551.469 177.651 551.348C 178.019 551.227 178.393 551.518 178.486 551.998z"/>
<path style="stroke:none; fill:#b6b6b6" d="M 180.124 552.797C 180.216 553.277 179.993 553.765 179.625 553.887C 179.256 554.008 178.882 553.716 178.789 553.236C 178.696 552.756 178.92 552.268 179.288 552.147C 179.656 552.025 180.031 552.317 180.124 552.797z"/>
</g>
<g>
<path style="stroke:none; fill:#a24445" d="M 187.838 563.592C 187.955 573.124 190.331 580.587 189.592 580.729C 189.18 580.808 186.84 574.479 183.227 565.854C 180.951 560.42 180.329 555.489 180.785 553C 181.002 551.813 181.734 551.567 182.145 551.365C 182.553 551.165 183.532 550.901 184.325 551.628C 186.007 553.17 187.762 557.387 187.838 563.592z"/>
<path style="stroke:none; fill:#823435" d="M 187.838 563.592C 188.095 573.517 190.183 580.075 189.592 580.729C 189.158 578.928 187.951 573.404 186.397 563.487C 185.006 554.606 183.654 553.552 182.145 551.365C 183.292 550.865 183.045 549.908 184.726 552.19C 186.17 554.15 187.698 558.181 187.838 563.592z"/>
<path style="stroke:none; fill:#b6b6b6" d="M 183.155 551.529C 183.282 552.027 183.094 552.574 182.735 552.75C 182.377 552.926 181.984 552.664 181.858 552.166C 181.731 551.668 181.919 551.121 182.278 550.945C 182.636 550.769 183.029 551.031 183.155 551.529z"/>
</g>
<g>
<path style="stroke:#823435; strokeWidth:0.343502; fill:#a24445" d="M 192.428 564.069C 192.706 573.711 195.366 581.194 194.579 581.359C 194.14 581.451 191.536 575.116 187.534 566.493C 185.012 561.061 184.268 556.089 184.715 553.556C 184.929 552.349 185.708 552.079 186.144 551.862C 186.577 551.648 187.62 551.352 188.48 552.065C 190.304 553.576 192.247 557.792 192.428 564.069z"/>
<path style="stroke:none; fill:#823435" d="M 192.428 564.069C 192.862 574.105 195.2 580.681 194.579 581.359C 194.085 579.55 192.707 573.995 190.886 564.005C 189.256 555.058 187.793 554.031 186.144 551.862C 187.363 551.323 187.083 550.361 188.917 552.621C 190.494 554.563 192.192 558.597 192.428 564.069z"/>
<path style="stroke:none; fill:#b6b6b6" d="M 186.818 552.182C 186.961 552.682 186.769 553.241 186.388 553.43C 186.008 553.618 185.583 553.365 185.44 552.864C 185.297 552.364 185.49 551.805 185.87 551.616C 186.25 551.428 186.675 551.681 186.818 552.182z"/>
<path style="stroke:none; fill:#b6b6b6" d="M 189.288 552.949C 189.431 553.45 189.238 554.009 188.858 554.197C 188.478 554.386 188.053 554.132 187.91 553.632C 187.767 553.131 187.959 552.572 188.339 552.384C 188.72 552.196 189.145 552.449 189.288 552.949z"/>
</g>
<g>
<path style="stroke:#823435; strokeWidth:0.347754; fill:#a24445" d="M 196.827 564.399C 197.641 574.085 200.933 581.394 200.084 581.627C 199.611 581.757 196.442 575.599 191.63 567.257C 188.598 562.001 187.524 557.057 187.877 554.469C 188.045 553.236 188.878 552.897 189.341 552.642C 189.801 552.389 190.92 552.003 191.894 552.647C 193.959 554.014 196.298 558.094 196.827 564.399z"/>
<path style="stroke:none; fill:#823435" d="M 196.827 564.399C 197.832 574.468 200.724 580.891 200.084 581.627C 199.451 579.847 197.656 574.37 195.146 564.466C 192.897 555.596 191.251 554.685 189.341 552.642C 190.639 551.995 190.284 551.05 192.4 553.17C 194.218 554.992 196.28 558.91 196.827 564.399z"/>
<path style="stroke:none; fill:#b6b6b6" d="M 189.574 553.288C 189.756 553.78 189.577 554.359 189.173 554.581C 188.769 554.803 188.293 554.584 188.111 554.092C 187.929 553.6 188.109 553.021 188.512 552.799C 188.916 552.577 189.392 552.796 189.574 553.288z"/>
<path style="stroke:none; fill:#b6b6b6" d="M 191.66 552.42C 191.842 552.912 191.662 553.492 191.259 553.713C 190.855 553.935 190.379 553.716 190.197 553.225C 190.015 552.733 190.194 552.154 190.598 551.932C 191.002 551.71 191.478 551.929 191.66 552.42z"/>
<path style="stroke:none; fill:#b6b6b6" d="M 192.929 555.533C 193.111 556.025 192.931 556.604 192.527 556.826C 192.124 557.048 191.648 556.829 191.466 556.338C 191.283 555.846 191.463 555.267 191.867 555.045C 192.271 554.823 192.746 555.042 192.929 555.533z"/>
</g>
<g>
<path style="stroke:#823435; strokeWidth:0.315083; fill:#a24445" d="M 201.896 564.599C 203.923 574.287 208.099 581.083 207.289 581.483C 206.839 581.706 202.928 576.057 197.119 568.504C 193.459 563.745 191.774 558.927 191.796 556.228C 191.807 554.942 192.587 554.437 193.013 554.089C 193.436 553.744 194.493 553.135 195.537 553.603C 197.751 554.595 200.577 558.292 201.896 564.599z"/>
<path style="stroke:none; fill:#823435" d="M 201.707 563.888C 203.97 573.929 207.64 579.901 207.1 580.772C 206.25 579.085 203.785 573.863 200.053 564.279C 196.711 555.696 194.97 555.088 192.824 553.378C 194.025 552.471 193.555 551.579 195.914 553.326C 197.941 554.828 200.473 558.413 201.707 563.888z"/>
<path style="stroke:none; fill:#b6b6b6" d="M 193.91 553.449C 194.152 553.914 194.048 554.537 193.677 554.84C 193.305 555.144 192.808 555.013 192.565 554.548C 192.323 554.083 192.428 553.46 192.799 553.156C 193.17 552.853 193.668 552.984 193.91 553.449z"/>
</g>
<g>
<path style="stroke:#823435; strokeWidth:0.320684; fill:#a24445" d="M 205.406 565.029C 207.84 575.007 212.593 581.925 211.706 582.364C 211.212 582.608 206.248 574.443 199.674 566.787C 198.466 565.381 196.88 564.081 196.101 563.003C 194.207 560.383 194.091 558.633 194.07 556.652C 194.056 555.319 194.91 554.773 195.374 554.4C 195.834 554.03 196.991 553.369 198.155 553.823C 200.623 554.786 203.822 558.533 205.406 565.029z"/>
<path style="stroke:none; fill:#823435" d="M 205.406 565.029C 208.109 575.365 212.286 581.445 211.706 582.364C 210.732 580.64 207.902 575.303 203.585 565.482C 199.719 556.688 198.51 554.738 195.374 554.4C 196.684 553.425 196.146 552.515 198.79 554.256C 201.061 555.753 203.933 559.393 205.406 565.029z"/>
</g>
<g>
<path style="stroke:#823435; strokeWidth:0.321499; fill:#a24445" d="M 210.17 564.05C 213.666 574.048 219.602 580.711 218.617 581.238C 218.068 581.531 212.579 576.046 204.505 568.787C 203.379 567.775 199.699 564.321 198.816 563.304C 195.709 559.724 196.771 558.695 196.591 556.469C 196.48 555.107 197.419 554.474 197.924 554.051C 198.425 553.632 199.703 552.855 201.068 553.218C 203.963 553.987 207.893 557.542 210.17 564.05z"/>
<path style="stroke:none; fill:#823435" d="M 210.17 564.05C 213.999 574.391 219.215 580.247 218.617 581.238C 217.379 579.559 213.758 574.345 208.116 564.674C 203.063 556.013 201.309 554.061 197.924 554.051C 199.355 552.939 198.674 552.055 201.826 553.606C 204.534 554.938 208.082 558.413 210.17 564.05z"/>
<path style="stroke:none; fill:#b6b6b6" d="M 199.047 555.127C 199.398 555.589 199.326 556.262 198.886 556.63C 198.446 556.998 197.803 556.922 197.452 556.461C 197.101 556 197.173 555.326 197.614 554.959C 198.054 554.591 198.696 554.666 199.047 555.127z"/>
</g>
<g>
<path style="stroke:#823435; strokeWidth:0.241256; fill:#a24445" d="M 214.387 562.712C 219.844 572.732 224.518 576.165 224.664 579.835C 223.258 579.863 218.574 572.423 209.489 568.699C 198.062 564.016 200.528 561.016 199.708 557.951C 199.318 556.49 200.091 555.555 200.49 554.962C 200.886 554.374 201.956 553.192 203.349 553.234C 206.301 553.324 210.834 556.189 214.387 562.712z"/>
<path style="stroke:none; fill:#823435" d="M 214.387 562.712C 218.576 570.586 225.034 578.464 224.664 579.703C 223.42 577.6 219.995 573.033 212.536 563.927C 205.855 555.772 205.512 553.469 200.49 554.962C 201.638 553.375 200.789 552.61 204.16 553.462C 207.066 554.196 211.194 556.712 214.387 562.712z"/>
</g>
<g>
<path style="stroke:none; fill:#a24445" d="M 151.079 564.794C 146.209 571.837 145.056 578.808 144.121 578.44C 143.6 578.236 144.198 572.117 144.519 563.507C 144.722 558.083 146.587 554.081 148.426 552.552C 149.302 551.823 150.284 552.11 150.869 552.224C 151.449 552.338 152.728 552.769 153.27 553.807C 154.42 556.007 154.249 560.208 151.079 564.794z"/>
<path style="stroke:none; fill:#823435" d="M 151.079 564.794C 146.166 572.213 145.153 578.339 144.121 578.44C 144.561 576.847 146.057 572.039 149.456 563.798C 152.499 556.418 151.479 554.786 150.869 552.224C 152.468 552.591 152.683 551.733 153.443 554.473C 154.096 556.828 153.758 560.748 151.079 564.794z"/>
<path style="stroke:none; fill:#b6b6b6" d="M 150.726 552.726C 150.612 553.171 150.105 553.451 149.595 553.351C 149.086 553.251 148.765 552.809 148.88 552.364C 148.994 551.92 149.501 551.64 150.01 551.74C 150.52 551.839 150.84 552.282 150.726 552.726z"/>
<path style="stroke:none; fill:#b6b6b6" d="M 149.058 556.837C 148.943 557.281 148.437 557.561 147.927 557.461C 147.418 557.361 147.097 556.919 147.211 556.475C 147.326 556.03 147.832 555.75 148.342 555.85C 148.852 555.95 149.172 556.392 149.058 556.837z"/>
</g>
<g>
<path style="stroke:none; fill:#a24445" d="M 146.885 566.001C 139.918 572.759 137.017 580.106 136.085 579.54C 135.566 579.225 137.663 572.703 140.046 563.433C 141.548 557.592 144.525 553.591 146.888 552.263C 148.015 551.631 149.016 552.117 149.626 552.346C 150.231 552.573 151.522 553.269 151.867 554.49C 152.6 557.08 151.421 561.601 146.885 566.001z"/>
<path style="stroke:none; fill:#823435" d="M 146.885 566.001C 139.782 573.16 137.232 579.615 136.085 579.54C 136.94 577.893 139.706 572.951 145.353 564.632C 150.411 557.182 149.685 555.23 149.626 552.346C 151.281 553.029 151.717 552.138 151.897 555.243C 152.052 557.911 150.758 562.098 146.885 566.001z"/>
<path style="stroke:none; fill:#b6b6b6" d="M 151.317 554.752C 151.088 555.213 150.47 555.426 149.939 555.226C 149.407 555.027 149.162 554.49 149.392 554.029C 149.622 553.567 150.24 553.355 150.771 553.554C 151.302 553.754 151.547 554.29 151.317 554.752z"/>
</g>
<g>
<path style="stroke:none; fill:#a24445" d="M 142.164 567.113C 134.525 573.204 130.606 580.46 129.823 579.744C 129.387 579.346 132.416 572.838 136.161 563.509C 138.52 557.631 141.965 553.868 144.4 552.808C 145.56 552.302 146.422 552.944 146.957 553.266C 147.488 553.585 148.587 554.485 148.713 555.804C 148.98 558.6 147.138 563.148 142.164 567.113z"/>
<path style="stroke:none; fill:#823435" d="M 142.164 567.113C 134.332 573.602 130.888 579.978 129.823 579.744C 130.894 578.145 134.294 573.375 140.948 565.479C 146.908 558.408 146.544 556.277 146.957 553.266C 148.4 554.202 148.954 553.334 148.619 556.592C 148.33 559.391 146.435 563.576 142.164 567.113z"/>
<path style="stroke:none; fill:#b6b6b6" d="M 143.973 554.067C 143.682 554.516 143.067 554.654 142.601 554.374C 142.135 554.094 141.992 553.502 142.283 553.052C 142.573 552.603 143.188 552.466 143.654 552.746C 144.121 553.026 144.263 553.618 143.973 554.067z"/>
</g>
<g>
<path style="stroke:none; fill:#a24445" d="M 138.262 566.807C 129.477 572.945 124.9 580.331 124.023 579.586C 123.535 579.171 127.088 572.539 131.504 563.022C 134.286 557.026 138.265 553.216 141.049 552.163C 142.377 551.661 143.344 552.333 143.946 552.67C 144.544 553.005 145.777 553.945 145.897 555.299C 146.152 558.172 143.981 562.811 138.262 566.807z"/>
<path style="stroke:none; fill:#823435" d="M 137.886 566.807C 129.113 573.35 125.196 579.841 124.022 579.586C 125.234 577.961 127.432 573.284 136.882 566.368C 138.055 565.51 139.835 564.023 140.555 563.193C 144.637 558.487 143.987 556.288 143.421 552.67C 145.001 553.651 145.63 552.769 145.203 556.106C 144.837 558.974 142.67 563.239 137.886 566.807z"/>
</g>
<g>
<path style="stroke:none; fill:#a24445" d="M 131.026 568.541C 128.201 570.536 125.767 571.263 124.001 572.723C 121.762 574.575 120.32 577.146 117.472 579.941C 117.514 579.129 116.575 579.77 116.984 578.692C 117.918 576.23 121.207 571.137 125.944 564.442C 130.286 558.306 133.172 553.492 136.444 552.545C 138.004 552.094 139.128 552.957 139.829 553.402C 140.525 553.843 141.957 555.039 142.081 556.607C 142.343 559.931 137.402 564.036 131.026 568.541z"/>
<path style="stroke:none; fill:#823435" d="M 129.589 570.154C 128.107 571.244 126.147 571.529 125.029 572.377C 120.636 575.711 119.396 578.075 117.236 579.935C 119.601 576.952 120.536 574.57 124.227 571.5C 126.14 569.909 130.162 569.182 133.426 566.508C 141.659 559.762 140.168 560.409 140.36 553.402C 142.248 554.682 142.483 553.729 141.929 557.522C 141.613 559.689 141.682 561.727 138.144 564.739C 136.361 566.256 130.437 570.692 129.589 570.154z"/>
</g>
<g>
<path style="stroke:none; fill:#a24445" d="M 124.453 568.338C 116.122 572.987 113.2 574.101 110.651 579.824C 110.549 580.054 109.555 580.032 110.412 578.159C 111.59 575.585 115.181 570.502 119.544 566.731C 124.65 562.318 127.464 555.62 130.25 554.892C 131.578 554.546 134.73 554.238 135.255 554.631C 135.776 555.021 134.715 558.397 134.642 559.728C 134.488 562.551 130.4 565.019 124.453 568.338z"/>
<path style="stroke:none; fill:#823435" d="M 121.834 570.409C 111.073 575.321 113.98 575.563 110.366 579.521C 113.315 573.149 118.121 571.092 121.738 569.371C 124.679 567.972 127.376 568.169 129.264 567.024C 137.536 562.01 135.825 557.499 135.612 554.662C 137.167 555.906 137.98 555.035 137.011 558.563C 136.431 560.676 137.049 563.329 132.31 566.329C 130.249 567.633 125.012 568.958 121.834 570.409z"/>
</g>
<path style="stroke:#afafae; strokeWidth:0.8; strokeLinecap:round; fill:none" d="M 144.763 564.777C 142.276 563.713 136.849 559.664 136.849 559.664"/>
<path style="stroke:#afafae; strokeWidth:0.8; strokeLinecap:round; fill:none" d="M 140.335 565.318C 139.245 563.75 134.281 559.953 134.281 559.953"/>
<path style="stroke:#afafae; strokeWidth:0.8; strokeLinecap:round; fill:none" d="M 146.405 563.608C 143.835 562.195 139.082 558.273 139.082 558.273"/>
<path style="stroke:#afafae; strokeWidth:0.8; strokeLinecap:round; fill:none" d="M 140.041 556.72C 142.858 557.321 146.594 555.45 146.594 555.45"/>
<path style="stroke:#afafae; strokeWidth:0.8; strokeLinecap:round; fill:none" d="M 155.997 562.541C 155.19 559.413 154.987 553.669 154.987 553.669"/>
<path style="stroke:#afafae; strokeWidth:0.8; strokeLinecap:round; fill:none" d="M 157.514 562.756C 158.232 559.755 159.366 556.718 159.366 556.718"/>
<path style="stroke:#afafae; strokeWidth:0.8; strokeLinecap:round; fill:none" d="M 120.927 560.784C 123.315 559.345 123.924 558.266 123.924 558.266"/>
<path style="stroke:#afafae; strokeWidth:0.8; strokeLinecap:round; fill:none" d="M 148.606 553.707C 145.596 554.228 142.951 554.392 142.951 554.392"/>
<path style="stroke:#afafae; strokeWidth:0.8; strokeLinecap:round; fill:none" d="M 153.452 562.346C 152.057 558.651 153.185 553.848 153.185 553.848"/>
<path style="stroke:#afafae; strokeWidth:0.8; strokeLinecap:round; fill:none" d="M 147.64 560.318C 145.297 559.8 142.398 557.397 142.398 557.397"/>
<path style="stroke:#afafae; strokeWidth:0.8; strokeLinecap:round; fill:none" d="M 152.541 562.715C 149.595 561.552 146.48 557.755 146.48 557.755"/>
<path style="stroke:#afafae; strokeWidth:0.8; strokeLinecap:round; fill:none" d="M 157.602 563.131C 156.679 559.586 156.113 555.785 156.113 555.785"/>
<path style="stroke:#afafae; strokeWidth:0.8; strokeLinecap:round; fill:none" d="M 162.361 563.451C 161.438 560.426 159.818 554.667 159.818 554.667"/>
<g>
<path style="stroke:none; fill:#a24445" d="M 119.296 569.118C 110.164 572.21 108.52 574.276 104.145 578.566C 104.023 578.685 103.872 578.407 104.283 577.594C 105.344 575.494 108.579 570.646 114.416 566.212C 119.901 562.046 123.267 555.438 126.126 554.863C 127.488 554.589 130.82 554.317 131.176 554.887C 132.431 556.893 131.856 559.661 131.676 561.002C 131.295 563.847 126.226 566.772 119.296 569.118z"/>
<path style="stroke:none; fill:#823435" d="M 116.53 570.767C 105.314 575.298 109.254 574.172 104.165 578.611C 109.545 571.947 112.618 571.374 116.47 570.043C 122.671 567.9 127.186 567.019 129.715 564.398C 130.207 563.888 131.289 563.436 131.348 562.578C 131.437 561.28 132.001 559.824 132.088 558.446C 132.17 557.138 131.785 555.902 131.532 554.939C 132.995 556.285 133.558 557.454 132.301 560.963C 132.089 561.555 132.65 562.239 132.336 563.071C 131.934 564.139 130.561 565.372 129.248 566.113C 126.371 567.737 121.107 568.918 116.53 570.767z"/>
</g>
<g>
<path style="stroke:none; fill:#a24445" d="M 114.897 568.266C 105.622 572.101 102.871 573.632 98.8209 577.988C 98.6764 578.143 98.0653 578.388 98.7973 577.144C 100.177 574.799 104.325 569.952 110.03 566.21C 115.943 562.331 119.801 555.976 122.793 555.521C 124.219 555.304 127.531 555.3 128.021 555.738C 128.507 556.173 126.933 559.41 126.671 560.72C 126.117 563.497 121.522 565.527 114.897 568.266z"/>
<path style="stroke:none; fill:#823435" d="M 112.155 570.437C 100.664 575.517 104.237 573.825 98.719 577.986C 104.664 571.652 107.677 571.454 111.648 569.993C 114.721 568.862 117.892 568.252 119.976 567.701C 123.936 566.654 125.387 565.153 126.824 563.971C 127.581 563.348 128.245 562.487 128.343 561.571C 128.42 560.858 128.005 560.128 127.988 559.346C 127.956 557.842 127.916 556.335 127.706 554.769C 128.329 555.365 129.197 556.491 129.472 557.894C 129.57 558.388 129.196 558.917 129.262 559.469C 129.359 560.286 129.442 560.923 129.433 561.787C 129.425 562.514 129.136 563.35 128.852 563.994C 127.914 566.123 124.531 567.075 119.063 568.53C 117.032 569.071 114.556 569.375 112.155 570.436L 112.155 570.437z"/>
</g>
<g>
<path style="stroke:none; fill:#a24445" d="M 109.766 568.973C 100.424 572.469 98.1038 573.826 93.2082 578.544C 93.1036 578.645 92.6495 578.595 92.9573 578.057C 94.0352 576.172 98.2852 570.742 105.283 566.343C 111.377 562.512 115.739 555.799 118.669 555.522C 120.066 555.391 123.26 555.634 123.687 556.153C 124.112 556.669 122.266 560.118 121.882 561.541C 121.065 564.56 116.437 566.477 109.766 568.973z"/>
<path style="stroke:none; fill:#823435" d="M 106.648 570.98C 94.9198 575.445 98.9277 574.298 93.1868 578.469C 99.5598 571.936 102.466 571.718 106.414 570.169C 108.964 569.169 112.084 568.911 114.338 568.32C 118.175 567.314 120.735 566.137 122.632 564.456C 124.478 562.821 124.774 558.846 124.033 556.252C 125.821 556.81 126.894 558.151 125.105 561.781C 124.791 562.418 125.163 563.958 124.334 564.528C 122.726 565.635 120.626 567.181 117.475 568.072C 114.304 568.968 110.419 569.545 106.648 570.98z"/>
</g>
<g>
<path style="stroke:#823435; strokeWidth:0.253604; fill:#a24445" d="M 219.067 563.837C 224.857 573.458 229.816 576.755 229.97 580.278C 228.479 580.305 223.8 573.911 214.473 569.586C 210.166 567.589 207.254 567.159 205.659 566.009C 201.967 563.344 204.101 561.322 203.494 559.266C 203.079 557.864 203.899 556.965 204.322 556.396C 204.743 555.831 205.879 554.696 207.356 554.737C 210.488 554.823 215.297 557.574 219.067 563.837z"/>
<path style="stroke:none; fill:#823435" d="M 219.067 563.837C 223.512 571.397 230.363 578.962 229.97 580.151C 228.651 578.132 225.017 573.747 217.103 565.004C 210.015 557.173 209.412 555.136 204.322 556.396C 205.541 554.872 204.64 554.138 208.217 554.955C 211.3 555.66 215.68 558.077 219.067 563.837z"/>
</g>
<g>
<path style="stroke:#823435; strokeWidth:0.261015; fill:#a24445" d="M 224.38 564.347C 230.747 574.334 236.2 577.756 236.37 581.413C 234.73 581.442 229.401 575.487 219.207 570.809C 212.907 567.918 209.559 567.196 208.073 565.904C 205.678 563.823 207.847 561.487 207.256 559.602C 206.801 558.146 207.702 557.214 208.168 556.623C 208.63 556.037 209.879 554.859 211.503 554.901C 214.948 554.99 220.235 557.845 224.38 564.347z"/>
<path style="stroke:none; fill:#823435" d="M 224.38 564.347C 229.268 572.195 236.802 580.047 236.37 581.281C 234.919 579.186 230.917 574.642 222.221 565.558C 214.436 557.425 215.735 555.1 208.168 556.623C 209.508 555.041 208.517 554.279 212.45 555.127C 215.84 555.859 220.656 558.368 224.38 564.347z"/>
</g>
<g>
<path style="stroke:#823435; strokeWidth:0.204229; fill:#a24445" d="M 227.734 564.769C 235.37 574.197 241.144 577.121 241.854 580.776C 240.275 580.958 234.316 574.788 223.749 571.232C 218.334 569.411 213.039 568.073 211.011 565.608C 210.194 564.614 210.213 562.647 210.497 561.611C 210.919 560.073 210.571 559.171 210.932 558.535C 211.291 557.903 212.32 556.603 213.894 556.493C 217.232 556.26 222.762 558.631 227.734 564.769z"/>
<path style="stroke:none; fill:#823435" d="M 227.734 564.769C 233.623 572.188 242.067 579.364 241.834 580.644C 240.121 578.676 236.99 572.829 227.235 564.534C 218.5 557.106 215.328 557.267 211.581 557.772C 212.638 556.058 210.92 556.148 214.842 556.632C 218.224 557.049 223.246 559.115 227.734 564.769z"/>
</g>
<g>
<path style="stroke:#823435; strokeWidth:0.165266; fill:#a24445" d="M 231.73 564.606C 240.276 573.556 245.737 576.729 246.817 580.352C 245.27 580.643 240.266 573.106 229.41 570.291C 224.257 568.955 217.545 569.14 214.853 567.216C 213.391 566.171 212.771 564.184 213.134 563.236C 213.719 561.712 213.561 560.781 213.854 560.117C 214.144 559.458 215.032 558.082 216.582 557.865C 219.869 557.404 226.167 558.779 231.73 564.606z"/>
<path style="stroke:none; fill:#823435" d="M 232.337 564.091C 238.943 571.143 246.884 578.92 246.784 580.221C 244.882 578.361 237.941 569.374 227.411 561.707C 217.98 554.84 217.037 558.172 213.854 560.117C 214.94 557.561 214.236 555.942 218.177 556.161C 221.575 556.349 227.304 558.719 232.337 564.091z"/>
</g>
<g>
<path style="stroke:none; fill:#a24445" d="M 105.812 569.74C 96.6195 572.17 95.1832 574.24 89.2581 577.788C 89.18 577.834 88.9043 577.866 89.1942 577.428C 90.3753 575.645 94.5859 567.152 101.999 563.212C 108.252 559.888 113.836 556.264 116.583 556.421C 117.892 556.496 120.72 557.001 121.028 557.652C 121.333 558.298 119.294 562.142 118.214 563.338C 115.883 565.918 112.375 568.004 105.812 569.74z"/>
<path style="stroke:none; fill:#823435" d="M 102.939 569.263C 93.3486 573.662 95.1901 574.05 89.2052 577.812C 96.1653 571.502 99.3776 569.902 103.255 568.696C 107.724 567.306 113.264 566.869 116.456 566.091C 119.726 565.294 119.649 564.213 120.203 562.917C 120.464 562.305 121.475 561.407 121.597 560.519C 121.77 559.261 120.995 557.943 120.974 556.8C 121.854 558.822 123.832 559.152 121.58 562.937C 119.631 564.407 121.776 564.617 118.692 565.893C 115.607 567.169 109.55 567.905 102.939 569.263z"/>
</g>
<path style="stroke:#afafae; strokeWidth:0.8; strokeLinecap:round; fill:none" d="M 125.435 559.015L 135.984 557.826"/>
<path style="stroke:#afafae; strokeWidth:0.8; strokeLinecap:round; fill:none" d="M 132.526 556.71L 136.724 555.954"/>
<path style="stroke:#afafae; strokeWidth:0.8; strokeLinecap:round; fill:none" d="M 119.919 566.454L 135.064 571.035"/>
<path style="stroke:#afafae; strokeWidth:0.8; strokeLinecap:round; fill:none" d="M 137.237 557.138L 140.715 554.869"/>
<path style="stroke:#afafae; strokeWidth:0.8; strokeLinecap:round; fill:none" d="M 141.31 559.262L 149.853 562.826"/>
<path style="stroke:#afafae; strokeWidth:0.8; strokeLinecap:round; fill:none" d="M 121.26 561.773C 122.082 560.684 131.541 559.917 131.541 559.917"/>
<path style="stroke:#afafae; strokeWidth:0.8; strokeLinecap:round; fill:none" d="M 121.086 558.641C 122.302 557.153 132.795 557.299 132.477 558.533"/>
<path style="stroke:#afafae; strokeWidth:0.8; strokeLinecap:round; fill:none" d="M 123.656 562.215L 135.908 567.812"/>
<path style="stroke:#afafae; strokeWidth:0.8; strokeLinecap:round; fill:#cececf" d="M 209.448 561.382C 205.714 560.794 198.644 565.072 198.644 565.072"/>
<path style="stroke:#afafae; strokeWidth:0.8; strokeLinecap:round; fill:#cececf" d="M 172.79 552.29C 171.697 553.885 169.634 554.363 169.634 554.363"/>
<path style="stroke:#afafae; strokeWidth:0.8; strokeLinecap:round; fill:#cececf" d="M 183.659 553.518C 182.737 552.531 182.36 555.189 182.36 555.189"/>
<path style="stroke:#afafae; strokeWidth:0.8; strokeLinecap:round; fill:#cececf" d="M 160.15 559.146C 159.328 558.057 156.865 552.588 156.865 552.588"/>
<path style="stroke:#afafae; strokeWidth:0.8; strokeLinecap:round; fill:#cececf" d="M 138.732 567.704C 135.493 565.584 129.748 560.999 129.748 560.999"/>
<path style="stroke:#afafae; strokeWidth:0.8; strokeLinecap:round; fill:#cececf" d="M 199.169 568.595C 197.902 568.371 211.581 562.72 211.581 562.72"/>
<path style="stroke:#afafae; strokeWidth:0.8; strokeLinecap:round; fill:none" d="M 215.592 564.012C 212.39 563.564 200.203 571.535 200.203 571.535"/>
<path style="stroke:#afafae; strokeWidth:0.8; strokeLinecap:round; fill:none" d="M 216.031 561.373C 210.107 560.608 208.45 560.234 208.45 560.234"/>
<path style="stroke:#afafae; strokeWidth:0.8; strokeLinecap:round; fill:none" d="M 189.992 562.391C 191.836 558.331 193.55 558.498 193.55 558.498"/>
<path style="stroke:#afafae; strokeWidth:0.8; strokeLinecap:round; fill:none" d="M 191.429 563.918C 193.714 560.327 197.861 558.898 197.861 558.898"/>
<path style="stroke:#afafae; strokeWidth:0.8; strokeLinecap:round; fill:none" d="M 189.248 559.339C 192.703 557.352 196.042 556.467 195.958 556.695"/>
<path style="stroke:#afafae; strokeWidth:0.8; strokeLinecap:round; fill:none" d="M 167.132 562.919C 165.591 560.12 166.158 553.995 166.158 553.995"/>
<path style="stroke:#afafae; strokeWidth:0.8; strokeLinecap:round; fill:none" d="M 171.25 563.12C 170.449 559.871 170.07 556.412 170.07 556.412"/>
<path style="stroke:#afafae; strokeWidth:0.8; strokeLinecap:round; fill:none" d="M 175.443 562.561C 174.665 559.668 174.297 556.587 174.297 556.587"/>
<path style="stroke:#afafae; strokeWidth:0.8; strokeLinecap:round; fill:none" d="M 176.246 563.206C 176.865 559.744 177.904 556.226 177.904 556.226"/>
<path style="stroke:#afafae; strokeWidth:0.8; strokeLinecap:round; fill:none" d="M 178.99 562.077C 179.639 559.644 181.409 554.703 181.409 554.703"/>
<path style="stroke:#afafae; strokeWidth:0.8; strokeLinecap:round; fill:none" d="M 183.997 562.165C 184.499 559.421 186.377 554.706 186.377 554.706"/>
<path style="stroke:#afafae; strokeWidth:0.8; strokeLinecap:round; fill:none" d="M 200.918 556.177C 203.492 555.45 208.71 557.093 208.635 557.892"/>
<path style="stroke:#afafae; strokeWidth:0.8; strokeLinecap:round; fill:none" d="M 188.192 563.266C 188.398 559.908 187.806 554.818 187.806 554.818"/>
<path style="stroke:#afafae; strokeWidth:0.8; strokeLinecap:round; fill:none" d="M 161.41 562.904C 162.417 558.504 164.011 554.049 164.011 554.049"/>
<path style="stroke:#afafae; strokeWidth:0.8; strokeLinecap:round; fill:none" d="M 162.485 562.85C 164.52 559.203 167.738 555.511 167.738 555.511"/>
<path style="stroke:#afafae; strokeWidth:0.8; strokeLinecap:round; fill:none" d="M 181.12 563.131C 179.77 559.969 179.13 556.603 179.13 556.603"/>
<path style="stroke:#afafae; strokeWidth:0.8; strokeLinecap:round; fill:none" d="M 169.603 563.14C 169.005 559.748 168.527 554.171 168.527 554.171"/>
<path style="stroke:#afafae; strokeWidth:0.8; strokeLinecap:round; fill:none" d="M 171.252 562.607C 172.001 559.428 173.185 556.21 173.185 556.21"/>
<path style="stroke:#afafae; strokeWidth:0.8; strokeLinecap:round; fill:none" d="M 185.555 561.767C 187.797 557.75 192.57 555.439 192.54 556.319"/>
<path style="stroke:#afafae; strokeWidth:0.8; strokeLinecap:round; fill:none" d="M 164.744 555.059C 164.769 553.906 164.919 552.711 164.919 552.711"/>
<path style="stroke:#afafae; strokeWidth:0.8; strokeLinecap:round; fill:none" d="M 174.263 554.996C 174.287 553.843 174.438 552.648 174.438 552.648"/>
<path style="stroke:#afafae; strokeWidth:0.8; strokeLinecap:round; fill:none" d="M 183.529 563.175C 181.926 559.977 184.087 554.775 184.087 554.775"/>
<path style="stroke:#afafae; strokeWidth:0.8; strokeLinecap:round; fill:none" d="M 197.707 554.652C 200.109 555.758 203.36 556.748 203.36 556.748"/>
<path style="stroke:#afafae; strokeWidth:0.8; strokeLinecap:round; fill:none" d="M 203.9 558.083C 204.434 558.531 207.817 557.539 212.42 559.162"/>
<path style="stroke:#afafae; strokeWidth:0.8; strokeLinecap:round; fill:none" d="M 194.726 554.906C 197.128 556.012 201.066 556.113 201.066 556.113"/>
<path style="stroke:#afafae; strokeWidth:0.8; strokeLinecap:round; fill:none" d="M 194.785 564.88C 197.646 563.063 204.851 560.433 204.851 560.433"/>
<path style="stroke:#afafae; strokeWidth:0.8; strokeLinecap:round; fill:none" d="M 198.281 557.829C 200.912 557.283 205.424 558.654 205.424 558.654"/>
<path style="stroke:#afafae; strokeWidth:0.8; strokeLinecap:round; fill:none" d="M 153.573 561.444C 151.659 558.375 148.2 555.849 148.2 555.849"/>
<path style="stroke:#afafae; strokeWidth:0.8; strokeLinecap:round; fill:none" d="M 194.84 562.277C 197.816 560.206 201.869 559.798 201.869 559.798"/>
</g>
<g>
<path style="stroke:#8d5d5e; strokeWidth:1.2;  strokeLinejoin:round; strokeLinecap:round; fill:none" d="M 222.299 539.407C 229.427 540.658 256.187 566.353 263.581 575.401L 265.96 573.033M 74.3312 563.169L 75.3145 565.134C 75.5554 561.732 77.7005 561.632 78.8005 563.564C 78.7816 562.154 79.3706 561.033 80.4683 562.607C 88.9506 554.425 106.883 538.538 110.72 539.757"/>
<path style="stroke:#823435; strokeWidth:0.677333; fill:#b16162" d="M 167.942 537.834C 90.0433 537.378 50.2014 605.74 53.1424 655.18C 57.0122 720.235 105.58 776.402 167.942 773.995C 233.826 771.452 277.728 725.832 280.992 655.928C 281.6 593.586 236.451 538.234 167.942 537.834zM 167.505 546.743C 171.625 546.743 195.074 547.071 215.515 554.75C 230.162 560.252 241.144 570.95 252.166 581.433C 275.756 603.869 273.728 646.691 273.728 650.836C 273.728 653.042 275.27 674.316 269.667 692.499C 263.795 711.553 250.458 727.811 236.403 742.055C 210.457 768.35 165.068 768.137 158.564 768.137C 152.03 768.137 109.591 754.479 86.7754 728.796C 62.8303 701.841 60.5701 658.384 60.5701 653.886C 60.5701 649.094 54.7093 610.104 84.4233 572.503C 104.179 547.504 161.42 546.743 167.505 546.743z"/>
<path style="stroke:none; fill:#ae8f1e" d="M 117.675 746.876L 122.64 749.928L 83.9825 827.158L 79.0172 824.106L 117.675 746.876z"/>
<path style="stroke:#494923; strokeWidth:0.6776; fill:#fcde55" d="M 69.8334 818.699C 80.116 795.496 93.1044 774.729 97.2721 768.447C 101.244 762.995 105.417 754.593 109.569 752.156C 110.733 748.227 102.837 746.025 98.1984 742.589C 93.4762 739.092 81.5251 725.644 75.1361 715.425C 69.5776 706.534 65.2365 696.591 62.2192 686.305C 58.9595 675.193 57.016 663.449 56.814 651.766C 56.6565 642.659 57.9201 633.474 60.0938 624.682C 63.2293 611.998 67.7293 598.593 75.8318 587.8C 68.4813 599.462 59.6751 627.16 59.9558 646.785C 60.1715 665.438 68.1016 696.796 78.6522 711.683C 82.7594 717.478 91.823 732.063 104.504 740.815C 112.548 743.165 114.795 741.632 117.117 743.897C 117.755 745.098 119.078 747.095 120.023 748.471C 108.451 770.564 89.347 813.149 82.3035 826.18M 82.3721 826.204C 85.9676 818.197 119.927 752.266 121.908 749.753C 123.534 750.797 125.55 750.282 126.651 749.896C 133.047 750.672 132.351 757.499 140.673 760.446C 147.162 761.889 162.389 765.932 172.76 763.188C 176.686 762.149 178.032 765.194 180.696 764.79C 183.283 764.398 183.291 761.864 187.743 760.997C 201.914 758.239 213.48 756.441 224.243 748.987C 241.111 737.304 255.714 719.984 264.58 700.252C 271.902 683.958 273.582 664.747 273.487 646.545C 273.406 631.126 270.424 610.42 265.465 601.148C 268.813 607.234 277.397 623.811 277.16 653.097C 276.928 681.71 272.152 700.999 252.95 728.926C 245.614 739.596 224.008 757.049 202.554 763.808C 163.254 776.19 137.833 767.009 135.874 765.452C 128.163 759.324 126.2 760.007 124.103 760.906C 123.48 761.717 123.706 765.123 122.845 768.493C 120.064 779.282 105.381 811.714 94.331 833.255"/>
<path style="stroke:none; fill:#b5b4b4" d="M 129.309 561.046C 154.041 544.942 193.994 550.806 206.069 560.655C 189.657 536.464 145.166 536.195 129.309 561.046z"/>
<g>
<defs><radialGradient id="6" cx="97.3803" cy="570.151" r="36.389" fx="97.3803" fy="570.151" gradientUnits="userSpaceOnUse">
<stop offset="0" style="stop-color:#a26039"/>
<stop offset="0" style="stop-color:#7e4e30"/>
<stop offset="0.749998" style="stop-color:#cd7944"/>
<stop offset="0.999997" style="stop-color:#cf4b4f"/>
<stop offset="1" style="stop-color:#cf4b4f"/>
</radialGradient>
</defs><path style="stroke:#862c2c; strokeWidth:0.8; fill:url(#6)" d="M 119.781 555.511C 118.932 555.121 118.06 554.754 117.256 554.32C 116.363 553.837 115.518 553.323 114.756 552.713C 114.173 552.247 113.696 551.658 113.231 551.078L 112.606 551.466C 112.606 551.466 112.07 550.587 111.631 549.693C 101.931 556.402 87.735 569.25 80.2805 577.811C 77.0508 581.404 76.9826 585.251 74.8055 590.609C 89.6366 567.507 96.0842 574.384 104.981 568.171C 108.568 567.532 112.239 567.613 114.606 567.063C 115.52 567.304 114.814 565.323 115.656 564.93C 117.443 564.093 117.49 562.897 117.056 562.326C 117.678 561.673 118.886 561.313 119.131 560.719C 119.403 560.058 118.434 558.931 118.531 558.281C 118.673 557.325 120.908 557.97 119.481 555.566C 119.587 555.555 119.674 555.523 119.781 555.511z"/>
<defs><radialGradient id="7" cx="240.693" cy="575.16" r="43.2849" fx="240.693" fy="575.16" gradientUnits="userSpaceOnUse">
<stop offset="0" style="stop-color:#a26039"/>
<stop offset="0" style="stop-color:#7e4e30"/>
<stop offset="0.749982" style="stop-color:#cd7944"/>
<stop offset="0.999977" style="stop-color:#cf4b4f"/>
<stop offset="1" style="stop-color:#cf4b4f"/>
</radialGradient>
</defs><path style="stroke:#862c2c; strokeWidth:0.8; fill:url(#7)" d="M 220.407 550.173C 220.421 550.256 220.445 550.34 220.457 550.422C 220.528 550.903 220.582 551.384 220.532 551.807C 220.481 552.23 220.34 552.617 220.082 552.943C 219.389 553.818 218.539 554.558 217.582 555.215C 217.399 555.34 217.172 555.428 216.982 555.547C 217.326 555.551 217.493 555.603 217.857 555.603C 211.305 557.134 217.466 559.677 217.232 562.445C 215.382 563.421 215.99 563.739 217.207 565.243C 215.848 566.229 215.978 566.042 217.357 567.376C 219.129 567.558 221.729 568.317 222.282 568.401C 226.645 568.7 239.213 570.819 243.032 574.052C 252.209 580.997 257.456 585.068 266.557 602.115C 264.851 597.646 264.193 595.293 264.757 592.474C 259.763 583.459 240.117 559.5 221.407 548.206C 221.128 549.323 220.78 549.633 220.407 550.173z"/>
<path style="stroke:#862c2c; strokeWidth:0.8; fill:none" d="M 112.906 551.184C 114.643 553.475 117.134 554.553 119.456 555.616M 119.456 555.616C 129.77 554.468 137.534 552.57 151.481 550.934C 151.569 547.735 162.137 546.882 167.681 546.862C 172.994 546.844 182.951 547.554 183.256 550.657C 204.458 553.006 205.095 555.584 217.306 555.727C 217.496 555.608 217.724 555.52 217.906 555.394C 218.864 554.738 219.429 553.863 220.122 552.988C 220.381 552.662 220.36 552.365 220.41 551.942C 220.449 551.462 220.655 551.239 220.581 550.574C 203.397 540.142 185.618 537.387 167.456 537.139C 150.572 536.908 133.515 539.173 117.806 548.275L 112.906 551.184"/>
<defs><radialGradient id="8" cx="166.94" cy="546.371" r="54.8665" fx="166.94" fy="546.371" gradientUnits="userSpaceOnUse">
<stop offset="0" style="stop-color:#4fac37"/>
<stop offset="0.999989" style="stop-color:#8eb82f"/>
<stop offset="1" style="stop-color:#8eb82f"/>
</radialGradient>
</defs><path style="stroke:none; fill:url(#8)" d="M 117.887 548.545L 112.825 551.543C 113.695 552.617 114.564 553.582 115.851 554.293C 116.656 554.728 117.184 555.031 118.032 555.421C 128.346 554.273 137.372 552.12 151.319 550.485C 151.407 547.285 161.975 546.432 167.519 546.413C 172.832 546.394 182.789 547.105 183.094 550.208C 204.295 553.095 206.372 555.247 218.583 555.39C 220.009 554.429 221.221 552.399 221.035 550.914C 195.113 535.237 147.34 531.425 117.887 548.545z"/>
</g>
<path style="stroke:#7b2c2c; strokeWidth:0.4; fill:none" d="M 151.81 547.098C 151.564 545.506 148.158 545.226 145.64 544.578L 131.347 543.701"/>
<path style="stroke:#7b2c2c; strokeWidth:0.4; fill:none" d="M 167.161 543.167L 167.161 537.025"/>
<path style="stroke:#7b2c2c; strokeWidth:0.4; fill:none" d="M 177.041 544.726C 179.622 540.867 182.892 540.825 185.817 538.874"/>
<path style="stroke:#7b2c2c; strokeWidth:0.4; fill:none" d="M 180.856 546.387C 184.537 543.386 196.003 544.926 199.577 544.242"/>
<path style="stroke:#7b2c2c; strokeWidth:0.4; fill:none" d="M 156.429 545.947C 156.25 545.546 156.033 545.138 154.585 544.502L 146.686 538.314"/>
<path style="stroke:#7b2c2c; strokeWidth:0.4; fill:none" d="M 173.07 542.654L 175.479 537.281"/>
<path style="stroke:#7b2c2c; strokeWidth:0.4; fill:none" d="M 161.762 542.718C 161.753 543.174 160.078 539.888 158.876 537.482"/>
<path style="stroke:#7b2c2c; strokeWidth:0.56; fill:#8eb82f" d="M 111.372 552.471L 143.283 548.387C 145.339 547.226 147.765 547.827 149.87 548.581C 151.429 548.974 151.062 549.98 150.498 551.383L 119.094 556.348L 111.372 552.471z"/>
<path style="stroke:#b5b4b4; strokeWidth:0.8; fill:none" d="M 215.344 559.217C 211.044 559.325 204.925 558.348 202.401 556.655"/>
<path style="stroke:#adabab; strokeWidth:0.8; fill:none" d="M 112.568 542.097C 111.772 544.456 111.998 546.969 112.185 549.44"/>
<path style="stroke:#adabab; strokeWidth:0.8; fill:none" d="M 221.473 540.087C 222.268 542.944 221.78 545.737 221.593 548.729"/>
<defs><radialGradient id="9" cx="77.3717" cy="586.069" r="17.2313" fx="77.3717" fy="586.069" gradientUnits="userSpaceOnUse">
<stop offset="0" style="stop-color:#a26039"/>
<stop offset="0" style="stop-color:#7e4e30"/>
<stop offset="0.750007" style="stop-color:#cd7944"/>
<stop offset="1" style="stop-color:#cf4b4f"/>
</radialGradient>
</defs><path style="stroke:none; fill:url(#9)" d="M 75.1784 584.805L 86.5745 571.745L 86.9499 575.113C 81.9887 578.598 76.1778 584.621 67.7935 600.393C 69.4946 596.271 70.1046 592.83 75.1784 584.805z"/>
<defs><radialGradient id="10" cx="257.55" cy="590.115" r="19.2289" fx="257.55" fy="590.115" gradientUnits="userSpaceOnUse">
<stop offset="0" style="stop-color:#a26039"/>
<stop offset="0" style="stop-color:#7e4e30"/>
<stop offset="0.749989" style="stop-color:#cd7944"/>
<stop offset="0.999985" style="stop-color:#cf4b4f"/>
<stop offset="1" style="stop-color:#cf4b4f"/>
</radialGradient>
</defs><path style="stroke:none; fill:url(#10)" d="M 264.875 594.192C 261.982 587.538 255.341 580.883 249.927 574.228L 246.718 576.883C 257.223 580.193 264.79 601.058 268.383 606.002L 264.875 594.192z"/>
<path style="stroke:none; fill:#c97642" d="M 113.403 552.41L 119.198 555.943L 118.689 556.932L 110.862 552.475L 113.403 552.41z"/>
<path style="stroke:#7b2c2c; strokeWidth:0.56; fill:#8eb82f" d="M 219.974 551.691L 190.434 547.999C 188.391 546.81 185.959 547.378 183.845 548.103C 182.282 548.475 182.638 549.486 183.186 550.896L 214.533 556.287L 219.974 551.691z"/>
<path style="stroke:none; fill:#c97642" d="M 218.001 551.691L 214.233 556.033L 217.337 556.213L 222.164 552.295L 218.001 551.691z"/>
<path style="stroke:#7b2c2c; strokeWidth:0.4; fill:none" d="M 159.42 545.089C 159.42 545.884 158.919 543.472 158.001 543.472C 157.083 543.472 156.501 543.278 156.501 542.484C 156.501 541.69 157.569 542.124 158.487 542.124C 159.405 542.124 159.42 544.295 159.42 545.089z"/>
<path style="stroke:#7b2c2c; strokeWidth:0.4; fill:none" d="M 169.495 543.868C 169.495 544.662 169.967 543.153 170.222 542.176C 170.495 541.128 170.405 541.115 170.405 540.321C 170.405 539.527 170.038 540.559 169.678 541.495C 169.348 542.353 169.495 543.074 169.495 543.868z"/>
</g>
<g>
<path style="stroke:#6466a7; strokeWidth:1.44;  strokeLinejoin:round; strokeLinecap:round; fill:none" d="M 130.179 749.022C 130.179 749.022 145.009 723.919 160.524 731.353C 168.8 734.069 170.741 728.873 178.18 724.356C 188.129 718.315 197.093 723.854 197.469 722.726"/>
<path style="stroke:#e74346; strokeWidth:1.44;  strokeLinejoin:round; strokeLinecap:round; fill:none" d="M 126.42 748.663C 126.42 748.663 142.711 729.836 163.844 731.043C 172.364 731.53 180.092 728.573 186.177 724.994C 194.496 720.102 199.743 721.957 199.743 721.957"/>
<path style="stroke:#e74346; strokeWidth:1.44;  strokeLinejoin:round; strokeLinecap:round; fill:none" d="M 108.203 740.742C 108.203 740.742 93.3518 710.428 106.544 702.996C 119.737 695.563 107.088 670.13 107.088 670.13"/>
<path style="stroke:#6466a7; strokeWidth:1.44;  strokeLinejoin:round; strokeLinecap:round; fill:none" d="M 103.708 738.669C 103.708 738.669 92.4503 716.054 102.424 703.937C 108.542 696.505 102.384 680.878 101.764 677.439"/>
<path style="stroke:#e32a2b; strokeWidth:0.8; fill:#242423" d="M 75.7184 704.78C 70.235 693.314 67.6724 691.542 64.7894 681.881C 62.6443 672.698 60.6565 662.86 60.0118 653.901"/>
<path style="stroke:#6466a7; strokeWidth:1.44; strokeLinecap:round; fill:#3b5fa3" d="M 216.973 760.777L 224.982 756.541"/>
<path style="stroke:#6466a7; strokeWidth:1.44; strokeLinecap:round; fill:#3b5fa3" d="M 263.955 716.166L 269.104 706.133"/>
<path style="stroke:#6466a7; strokeWidth:1.44; strokeLinecap:round; fill:#3b5fa3" d="M 77.5817 724.029L 79.2812 726.673"/>
<path style="stroke:#6466a7; strokeWidth:1.44; strokeLinecap:round; fill:#3b5fa3" d="M 64.9361 700.235L 66.4402 704.302"/>
<path style="stroke:#6466a7; strokeWidth:1.44; strokeLinecap:round; fill:#3b5fa3" d="M 55.3079 667.462L 57.5935 678.971"/>
<path style="stroke:#e3272a; strokeWidth:0.8; strokeLinecap:round; fill:#3b5fa3" d="M 201.419 767.144L 214.645 761.856"/>
<path style="stroke:#e3272a; strokeWidth:1.44; strokeLinecap:round; fill:#3b5fa3" d="M 243.923 742.236L 251.881 733.785"/>
<path style="stroke:#e3272a; strokeWidth:1.44; strokeLinecap:round; fill:#3b5fa3" d="M 256.482 727.766L 260.221 721.853"/>
<path style="stroke:#e3272a; strokeWidth:1.44; strokeLinecap:round; fill:#3b5fa3" d="M 83.8004 732.164L 87.8444 737.248"/>
<path style="stroke:#e3272a; strokeWidth:1.44; strokeLinecap:round; fill:#3b5fa3" d="M 59.8194 685.508L 61.5761 692.16"/>
<path style="stroke:#e3272a; strokeWidth:1.44; strokeLinecap:round; fill:#3b5fa3" d="M 69.3423 710.498L 72.6049 716.911"/>
<path style="stroke:#6466a7; strokeWidth:1.44; strokeLinecap:round; fill:#3b5fa3" d="M 277.148 679.352L 278.844 667.88"/>
<path style="stroke:#6466a7; strokeWidth:1.44; strokeLinecap:round; fill:#3b5fa3" d="M 274.796 619.385L 271.434 608.807"/>
<path style="stroke:#e3272a; strokeWidth:1.44; strokeLinecap:round; fill:#3b5fa3" d="M 273.013 695.6L 274.77 689.92"/>
<path style="stroke:#e3272a; strokeWidth:1.44; strokeLinecap:round; fill:#3b5fa3" d="M 279.564 659.127L 279.662 653.699"/>
<path style="stroke:#e3272a; strokeWidth:1.44; strokeLinecap:round; fill:#3b5fa3" d="M 279.188 638.707L 278.215 632.542"/>
<path style="stroke:#e3272a; strokeWidth:1.44; strokeLinecap:round; fill:#3b5fa3" d="M 54.6075 655.927L 54.292 649.619"/>
<path style="stroke:#e3272a; strokeWidth:1.44; strokeLinecap:round; fill:#3b5fa3" d="M 54.8773 640.109L 55.9433 632.506"/>
<path style="stroke:#405fa3; strokeWidth:1.44; strokeLinecap:round; fill:#3b5fa3" d="M 66.4415 600.695L 62.9412 608.07"/>
<path style="stroke:#e3272a; strokeWidth:1.44; strokeLinecap:round; fill:#3b5fa3" d="M 69.8838 594.671L 71.7852 591.6"/>
<path style="stroke:#e3272a; strokeWidth:1.44; strokeLinecap:round; fill:#3b5fa3" d="M 92.317 567.056L 93.9356 565.349"/>
<path style="stroke:#405fa3; strokeWidth:1.44; strokeLinecap:round; fill:#3b5fa3" d="M 82.9344 576.788L 81.2136 578.913"/>
<path style="stroke:#405fa3; strokeWidth:1.44; strokeLinecap:round; fill:#3b5fa3" d="M 101.861 559.963L 99.588 561.297"/>
<path style="stroke:#e3272a; strokeWidth:1.44; strokeLinecap:round; fill:#3b5fa3" d="M 265.678 597.231L 264.06 594.086"/>
<path style="stroke:#405fa3; strokeWidth:1.44; strokeLinecap:round; fill:#3b5fa3" d="M 258.493 585.813L 260.628 588.802"/>
<path style="stroke:#e3272a; strokeWidth:1.44; strokeLinecap:round; fill:#3b5fa3" d="M 243.971 569.429L 242.49 568.009"/>
<path style="stroke:#405fa3; strokeWidth:1.44; strokeLinecap:round; fill:#3b5fa3" d="M 232.976 560.178L 234.558 561.585"/>
<path style="stroke:#6466a7; strokeWidth:1.44;  strokeLinejoin:round; strokeLinecap:round; fill:none" d="M 113.867 762.312C 117.852 753.816 120.613 748.254 123.497 749.012C 125.038 749.417 127.502 748.241 128.987 749.356C 133.628 754.8 135.813 758.012 143.556 760.284"/>
<path style="stroke:#6466a7; strokeWidth:1.44; strokeLinecap:round; fill:none" d="M 69.7057 818.422C 78.3845 818.769 84.3891 815.097 88.9436 811.827C 93.8466 808.306 93.4085 799.471 96.2182 793.906C 99.0788 784.166 120.487 754.289 119.299 746.196C 118.865 745.091 119.004 743.965 116.49 743.135C 111.574 741.513 101.741 740.14 92.0767 729.361C 87.3394 723.136 80.6481 714.104 75.4987 704.883"/>
<path style="stroke:#e32a2b; strokeWidth:1.44; strokeLinecap:round; fill:none" d="M 114.845 761.854C 114.845 761.854 119.286 752.465 121.282 748.254C 122.816 748.463 126.103 748.288 128.726 748.96C 133.002 753.56 137.987 757.985 139.834 758.96"/>
<path style="stroke:#e32a2b; strokeWidth:1.44; strokeLinecap:round; fill:none" d="M 71.4154 819.533C 76.2905 817.19 78.2386 817.216 83.0966 814.486C 87.9002 811.788 89.8299 811.071 91.2975 807.062C 95.866 794.584 114.089 763.649 114.089 763.649C 114.089 763.649 119.018 754.458 118.944 747.533C 118.002 745.603 117.19 743.939 116.829 741.835C 116.495 741.198 113.197 740.464 111.862 740.185C 103.44 738.425 84.4632 722.368 73.9479 701.528"/>
<path style="stroke:#6466a7; strokeWidth:1.016;  strokeLinejoin:round; strokeLinecap:round; fill:none" d="M 103.648 702.319C 103.648 702.319 115.739 694.716 122.655 696.223"/>
<path style="stroke:#e74346; strokeWidth:1.016;  strokeLinejoin:round; strokeLinecap:round; fill:none" d="M 107.13 669.616C 105.944 662.783 112.314 642.274 122.705 633.13"/>
<path style="stroke:#e74346; strokeWidth:1.016;  strokeLinejoin:round; strokeLinecap:round; fill:none" d="M 113.475 645.763C 113.475 645.763 131.47 641.813 133.906 639.883"/>
<path style="stroke:#e74346; strokeWidth:1.016;  strokeLinejoin:round; strokeLinecap:round; fill:none" d="M 84.354 657.157C 84.354 657.157 75.1933 657.239 72.5141 646.22"/>
<path style="stroke:#e74346; strokeWidth:1.016;  strokeLinejoin:round; strokeLinecap:round; fill:none" d="M 109.071 656.265C 104.387 649.722 104.879 655.144 99.3396 631.431"/>
<path style="stroke:#e74346; strokeWidth:1.016;  strokeLinejoin:round; strokeLinecap:round; fill:none" d="M 112.339 684.486C 112.77 672.559 128.784 663.924 131.23 656.106"/>
<path style="stroke:#e74346; strokeWidth:1.016;  strokeLinejoin:round; strokeLinecap:round; fill:none" d="M 101.495 708.04C 101.495 708.04 89.6729 680.93 82.6049 679.66"/>
<path style="stroke:#6466a7; strokeWidth:1.016;  strokeLinejoin:round; strokeLinecap:round; fill:none" d="M 101.791 676.394C 97.6791 658.87 110.143 647.497 114.373 635.597"/>
<path style="stroke:#6466a7; strokeWidth:1.016;  strokeLinejoin:round; strokeLinecap:round; fill:none" d="M 102.898 658.853C 111.542 658.152 118.835 654.511 123.742 650.725"/>
<path style="stroke:#6876b1; strokeWidth:1.016;  strokeLinejoin:round; strokeLinecap:round; fill:none" d="M 73.8948 684.49C 74.544 684.973 70.4182 676.062 68.3936 669.02"/>
<path style="stroke:#6466a7; strokeWidth:1.016;  strokeLinejoin:round; strokeLinecap:round; fill:none" d="M 101.104 664.2C 100.226 664.059 90.9328 653.236 89.1853 642.054"/>
<path style="stroke:#6466a7; strokeWidth:1.016;  strokeLinejoin:round; strokeLinecap:round; fill:none" d="M 99.3414 710.384C 99.3414 710.384 79.4983 700.002 74.3022 684.882"/>
<path style="stroke:#e74346; strokeWidth:1.016;  strokeLinejoin:round; strokeLinecap:round; fill:none" d="M 209.743 677.326C 209.743 677.326 208.687 672.63 207.501 659.767C 207.234 656.872 214.529 645.752 214.26 642.778"/>
<path style="stroke:#e74346; strokeWidth:0.64;  strokeLinejoin:round; strokeLinecap:round; fill:none" d="M 208.036 661.79C 208.036 661.79 204.7 648.592 198.974 644.102"/>
<path style="stroke:#e74346; strokeWidth:1.016;  strokeLinejoin:round; strokeLinecap:round; fill:none" d="M 200.605 721.894C 200.605 721.894 214.808 735.426 221.499 728.179"/>
<path style="stroke:#e74346; strokeWidth:1.016;  strokeLinejoin:round; strokeLinecap:round; fill:none" d="M 210.173 676.798C 210.173 676.798 223.217 669.128 233.796 659.264"/>
<path style="stroke:#e74346; strokeWidth:1.016;  strokeLinejoin:round; strokeLinecap:round; fill:none" d="M 164.543 730.835C 164.543 730.835 174.895 713.426 169.993 693.018"/>
<path style="stroke:#e74346; strokeWidth:1.016;  strokeLinejoin:round; strokeLinecap:round; fill:none" d="M 188.557 723.792C 188.557 723.792 202.539 709.725 210.309 676.966"/>
<path style="stroke:#6466a7; strokeWidth:1.016;  strokeLinejoin:round; strokeLinecap:round; fill:none" d="M 197.309 723.524C 209.74 742.79 242.116 726.917 251.628 700.611"/>
<path style="stroke:#6466a7; strokeWidth:1.016;  strokeLinejoin:round; strokeLinecap:round; fill:none" d="M 193.314 690.557C 187.716 677.588 197.966 669.321 195.489 655.509"/>
<path style="stroke:#6466a7; strokeWidth:1.016;  strokeLinejoin:round; strokeLinecap:round; fill:none" d="M 191.983 676.486C 187.649 670.774 183.568 674.861 178.113 653.557"/>
<path style="stroke:#6466a7; strokeWidth:1.016;  strokeLinejoin:round; strokeLinecap:round; fill:none" d="M 226.866 700.54C 223.94 702.676 222.345 709.639 221.755 711.633C 218.854 721.432 214.875 721.156 210.982 731.472"/>
<path style="stroke:#6466a7; strokeWidth:1.016;  strokeLinejoin:round; strokeLinecap:round; fill:none" d="M 193.318 689.73C 202.292 681.443 214.539 682.073 225.474 679.534"/>
<path style="stroke:#6466a7; strokeWidth:1.016;  strokeLinejoin:round; strokeLinecap:round; fill:none" d="M 150.073 729.868C 150.912 727.297 148.351 718.313 154.119 703.871C 155.572 700.234 160.487 698.156 160.208 686.207"/>
<path style="stroke:#6466a7; strokeWidth:1.016;  strokeLinejoin:round; strokeLinecap:round; fill:none" d="M 178.741 723.739C 181.236 704.939 192.818 701.811 193.075 689.749"/>
<path style="stroke:#e74346; strokeWidth:1.016;  strokeLinejoin:round; strokeLinecap:round; fill:none" d="M 202.513 700.704C 207.103 701.157 217.996 697.396 227.787 687.868"/>
<path style="stroke:#e74346; strokeWidth:1.016;  strokeLinejoin:round; strokeLinecap:round; fill:none" d="M 106.485 669.659C 97.4354 665.505 76.7644 657.466 79.8692 646.704"/>
<path style="stroke:#6466a7; strokeWidth:1.016;  strokeLinejoin:round; strokeLinecap:round; fill:none" d="M 101.93 678.414C 99.141 671.074 78.2864 674.18 73.1312 662.234"/>
<path style="stroke:#6466a7; strokeWidth:1.016;  strokeLinejoin:round; strokeLinecap:round; fill:none" d="M 215.414 731.713C 222.537 738.743 240.628 728.798 251.789 717.681"/>
<path style="stroke:#6466a7; strokeWidth:0.8; fill:none" d="M 76.4443 707.733C 72.3079 699.432 67.1921 691.574 65.2761 682.344L 61.087 654.549"/>
<path style="stroke:#3b5fa3; strokeWidth:0.8;  strokeLinejoin:round; strokeLinecap:round; fill:none" d="M 62.1656 613.248C 56.2623 633.722 55.3417 651.543 57.3928 667.652C 62.0936 704.572 82.3308 731.496 105.469 750.235"/>
<path style="stroke:#e32a2b; strokeWidth:0.8;  strokeLinejoin:round; strokeLinecap:round; fill:none" d="M 63.1387 610.013C 56.3634 630.741 55.2785 649.796 57.4214 666.989C 62.1897 705.245 81.8254 731.358 104.374 749.067"/>
<path style="stroke:#e32a2b; strokeWidth:0.8;  strokeLinejoin:round; strokeLinecap:round; fill:none" d="M 272.753 616.505C 274.702 622.004 277.365 636.397 277.898 646.585C 278.443 656.996 277.82 667.585 275.881 677.79C 273.794 688.777 270.688 699.766 265.647 709.505C 256.996 726.22 245.009 741.151 230.22 750.758C 215.539 760.294 205.74 764.433 191.782 767.695C 168.512 773.133 144.869 771.353 135.099 765.982"/>
<path style="stroke:#6466a7; strokeWidth:0.8;  strokeLinejoin:round; strokeLinecap:round; fill:none" d="M 271.78 612.992C 273.86 618.432 276.932 632.695 277.755 642.848C 278.596 653.232 278.262 663.83 276.652 674.102C 274.916 685.186 272.323 696.414 267.515 706.297C 259.265 723.258 247.58 738.914 232.737 749.075C 218.259 758.986 207.962 763.521 194.085 767.19C 170.954 773.305 147.449 771.327 137.382 767.006"/>
<path style="stroke:#e74346; strokeWidth:1.016;  strokeLinejoin:round; strokeLinecap:round; fill:none" d="M 182.341 727.409C 182.341 727.409 186.006 727.001 188.038 738.281"/>
<path style="stroke:#6466a7; strokeWidth:1.016;  strokeLinejoin:round; strokeLinecap:round; fill:none" d="M 164.443 742.276C 164.443 742.276 163.039 731.498 161.717 732.489"/>
<path style="stroke:#6466a7; strokeWidth:1.016;  strokeLinejoin:round; strokeLinecap:round; fill:none" d="M 117.532 741.982C 118.945 735.221 117.425 714.523 127.216 707.81"/>
<path style="stroke:#6466a7; strokeWidth:0.64;  strokeLinejoin:round; strokeLinecap:round; fill:none" d="M 159.253 755.574C 157.136 751.051 164.304 749.372 164.555 742.643"/>
<path style="stroke:#6466a7; strokeWidth:0.64;  strokeLinejoin:round; strokeLinecap:round; fill:none" d="M 169.664 752.25C 169.664 752.25 164.489 746.35 164.524 742.193"/>
<path style="stroke:#e74346; strokeWidth:0.64;  strokeLinejoin:round; strokeLinecap:round; fill:none" d="M 188.098 738.552C 187.899 742.413 185.647 742.825 184.551 749.063"/>
<path style="stroke:#e74346; strokeWidth:0.64;  strokeLinejoin:round; strokeLinecap:round; fill:none" d="M 188.362 738.552C 188.561 742.413 190.813 742.825 191.91 749.063"/>
<path style="stroke:#e74346; strokeWidth:1.016;  strokeLinejoin:round; strokeLinecap:round; fill:none" d="M 136.79 739.222C 144.303 724.093 132.488 718.228 139.258 704.455"/>
<path style="stroke:#6466a7; strokeWidth:1.016;  strokeLinejoin:round; strokeLinecap:round; fill:none" d="M 148.387 747.867C 142.225 746.291 140.212 737.841 139.927 739.097"/>
<path style="stroke:#e74346; strokeWidth:1.016;  strokeLinejoin:round; strokeLinecap:round; fill:none" d="M 202.983 724.105C 202.983 724.105 206.19 730.051 202.946 734.468"/>
<path style="stroke:#e74346; strokeWidth:0.64;  strokeLinejoin:round; strokeLinecap:round; fill:none" d="M 166.573 684.671C 166.772 688.532 169.024 688.945 170.12 695.183"/>
<path style="stroke:#e74346; strokeWidth:0.64;  strokeLinejoin:round; strokeLinecap:round; fill:none" d="M 174.019 684.163C 173.82 688.024 171.568 688.436 170.472 694.674"/>
<path style="stroke:#6466a7; strokeWidth:0.64;  strokeLinejoin:round; strokeLinecap:round; fill:none" d="M 263.28 675.923C 260.82 686.304 258.994 698.686 251.154 700.994"/>
<path style="stroke:#6466a7; strokeWidth:0.64;  strokeLinejoin:round; strokeLinecap:round; fill:none" d="M 236.087 687.318C 234.498 692.099 231.658 695.768 227.003 700.098"/>
<path style="stroke:#6466a7; strokeWidth:0.64;  strokeLinejoin:round; strokeLinecap:round; fill:none" d="M 241.568 664.314C 237.213 673.287 229.55 675.28 224.894 679.61"/>
<path style="stroke:#6466a7; strokeWidth:0.64;  strokeLinejoin:round; strokeLinecap:round; fill:none" d="M 246.681 676.43C 241.636 681.733 229.55 683.878 224.894 679.549"/>
<path style="stroke:#6466a7; strokeWidth:0.64;  strokeLinejoin:round; strokeLinecap:round; fill:none" d="M 180.635 639.619C 179.362 644.226 182.745 651.91 179.173 657.359"/>
<path style="stroke:#e74346; strokeWidth:0.64;  strokeLinejoin:round; strokeLinecap:round; fill:none" d="M 233.44 659.959C 238.37 659.487 248.409 656.786 252.212 647.972"/>
<path style="stroke:#e74346; strokeWidth:0.64;  strokeLinejoin:round; strokeLinecap:round; fill:none" d="M 233.429 659.418C 234.177 653.936 232.867 647.214 235.416 640.838"/>
<path style="stroke:#6466a7; strokeWidth:0.64;  strokeLinejoin:round; strokeLinecap:round; fill:none" d="M 246.228 691.041C 243.017 690.393 231.496 704.545 226.841 700.216"/>
<path style="stroke:#e74346; strokeWidth:0.64;  strokeLinejoin:round; strokeLinecap:round; fill:none" d="M 221.585 727.576C 224.566 718.462 227.838 710.423 233.935 704.151"/>
<path style="stroke:#6466a7; strokeWidth:0.64;  strokeLinejoin:round; strokeLinecap:round; fill:none" d="M 148.065 662.747C 146.166 676.021 160.021 680.615 160.12 686.445"/>
<path style="stroke:#e74346; strokeWidth:0.64;  strokeLinejoin:round; strokeLinecap:round; fill:none" d="M 202.562 735.185C 200.356 740.823 202.747 744.283 199.879 748.678"/>
<path style="stroke:#6466a7; strokeWidth:0.64;  strokeLinejoin:round; strokeLinecap:round; fill:none" d="M 153.977 762.437C 150.255 762.025 145.496 761.534 143.224 759.671"/>
<path style="stroke:#e74346; strokeWidth:1.016;  strokeLinejoin:round; strokeLinecap:round; fill:none" d="M 221.527 728.01C 223.572 729.139 233.303 725.397 242.574 715.487C 246.908 710.855 251.749 710.068 253.133 706.926"/>
<path style="stroke:#6466a7; strokeWidth:0.64;  strokeLinejoin:round; strokeLinecap:round; fill:none" d="M 256.271 690.367C 254.611 694.755 255.927 693.452 251.751 700.439"/>
<path style="stroke:#e74346; strokeWidth:0.64;  strokeLinejoin:round; strokeLinecap:round; fill:none" d="M 226.977 726.973C 230.359 731.427 234.545 735.077 240.335 731.565"/>
<path style="stroke:#6466a7; strokeWidth:0.64;  strokeLinejoin:round; strokeLinecap:round; fill:none" d="M 206.499 715.783C 204.91 720.564 201.466 721.137 197.728 722.925"/>
<path style="stroke:#6466a7; strokeWidth:0.64;  strokeLinejoin:round; strokeLinecap:round; fill:none" d="M 163.662 664.526C 165.204 674.75 163.691 680.233 160.12 685.683"/>
<path style="stroke:#6466a7; strokeWidth:0.64;  strokeLinejoin:round; strokeLinecap:round; fill:none" d="M 133.386 679.267C 132.405 689.491 128.369 694.212 122.734 696.357"/>
<path style="stroke:#e74346; strokeWidth:0.64;  strokeLinejoin:round; strokeLinecap:round; fill:none" d="M 252.602 707.743C 257.768 703.931 264.549 694.282 267.907 683.94"/>
</g>
<g>
<path style="stroke:#e3272a; strokeWidth:1.6; strokeLinecap:round; fill:none" d="M 49.3453 788.625C 61.4124 779.099 57.137 766.513 77.3792 767.996"/>
<path style="stroke:#e3272a; strokeWidth:0.96; strokeLinecap:round; fill:none" d="M 65.9151 769.266C 81.0454 754.082 73.1891 729.669 74.6696 718.944"/>
<path style="stroke:#6466a7; strokeWidth:1.12; strokeLinecap:round; fill:none" d="M 90.6386 740.096L 94.9442 744.145C 101.953 747.683 88.4997 762.867 78.598 764.654"/>
<path style="stroke:#e3272a; strokeWidth:0.96; strokeLinecap:round; fill:none" d="M 77.8669 767.796C 80.1234 767.929 83.7108 767.318 86.3284 764.691C 101.459 749.508 93.1436 750.001 96.9178 743.851"/>
<path style="stroke:#e3272a; strokeWidth:0.96; strokeLinecap:round; fill:none" d="M 77.7522 768.559C 80.0087 768.692 83.0286 767.122 86.5578 766.979C 93.2783 766.705 101.401 749.239 107.698 750.205"/>
<path style="stroke:#e3272a; strokeWidth:0.96; strokeLinecap:round; fill:none" d="M 306.693 644.144C 303.239 637.546 302.176 626.939 296.837 620.166C 290.627 611.46 286.708 604.934 276.487 595.859C 270.095 598.175 259.798 586.908 254.798 582.124"/>
<path style="stroke:#e3272a; strokeWidth:0.96; strokeLinecap:round; fill:none" d="M 19.3072 672.825C 18.2173 673.461 24.0754 659.645 30.1014 646.257C 38.7142 614.729 50.5377 592.688 67.7891 579.848C 74.1812 582.164 81.8832 573.413 88.5048 571.145"/>
</g>
<defs><linearGradient id="11" x1="292.638" y1="733.11" x2="40.1948" y2="579.58" gradientUnits="userSpaceOnUse">
<stop offset="0" style="stop-color:#c0a796"/>
<stop offset="4.5548e-07" style="stop-color:#c0a796"/>
<stop offset="1" style="stop-color:#3e2d24"/>
</linearGradient>
</defs>
<g>
<path style="stroke:none; fill:#cf7949" d="M 157.878 591.084C 163.315 591.749 168.834 591.575 174.575 590.554C 172.324 592.065 171.162 593.273 169.673 594.297C 169.141 594.663 168.198 596.502 168.152 597.486C 167.41 613.063 166.917 624.343 163.236 643.576C 161.441 652.959 159.215 663.108 155.117 677.38C 148.24 701.333 138.963 722.274 133.89 737.211C 131.875 743.145 130.433 748.465 130.631 751.367C 129.806 750.455 127.774 749.193 126.461 749.531C 125.386 749.808 124.517 750.073 123.373 749.98L 120.611 748.718L 116.696 742.725C 117.883 742.662 118.992 742.632 120.022 742.172C 123.287 740.715 125.88 737.283 127.522 734.987C 143.359 712.85 148.404 690.954 155.674 668.002C 159.475 651.668 162.234 635.327 162.847 618.998C 163.285 607.32 162.765 598.877 162.355 594.02C 162.301 593.377 160.935 592.596 160.27 592.21C 159.405 591.708 159.09 591.062 157.878 591.084z"/>
<path style="stroke:#6e6e6d; strokeWidth:0.677333; fill:none" d="M 138.513 583.529C 141.888 587.002 149.127 589.218 152.12 589.908C 156.003 590.801 159.915 592.169 161.87 593.783C 169.355 663.37 127.455 753.056 115.33 741.314M 131.224 752.893C 126.327 744.027 168.196 672.459 168.111 598.769C 168.107 595.939 171.371 592.197 174.814 591.182C 187.633 587.402 191.823 586.015 199 578.737"/>
</g>
<g>
<defs><radialGradient id="12" cx="167.162" cy="570.75" r="51.5097" fx="167.162" fy="570.75" gradientUnits="userSpaceOnUse">
<stop offset="0" style="stop-color:#6c9fd0"/>
<stop offset="0.999999" style="stop-color:#ffffff"/>
<stop offset="1" style="stop-color:#ffffff"/>
</radialGradient>
</defs><path style="stroke:#242423; strokeWidth:0.96; fill:url(#12)" d="M 127.132 565.183C 135.14 598.8 196.154 599.936 207.192 563.996C 207.111 546.266 128.18 546.221 127.132 565.183z"/>
<path style="stroke:#ffffff; strokeWidth:0.8; fill:none" d="M 125.801 570.309C 122.45 568.756 118.669 567.412 116.457 566.968"/>
<path style="stroke:#b5b4b4; strokeWidth:0.8; fill:none" d="M 119.594 560.815C 121.396 561.446 121.51 561.258 123.53 561.045C 125.439 561.114 130.233 558.601 132.826 557.39"/>
<path style="stroke:#ffffff; strokeWidth:0.8; fill:none" d="M 127.184 566.932C 124.32 566.213 119.589 565.111 117.161 564.975"/>
<path style="stroke:#ffffff; strokeWidth:0.8; fill:none" d="M 116.139 563.124C 119.07 563.245 121.522 563.216 124.41 563.114"/>
<path style="stroke:#d39293; strokeWidth:0.8; fill:none" d="M 116.651 567.05C 112.954 565.797 110.148 565.92 106.451 565.986"/>
<path style="stroke:#d39293; strokeWidth:0.8; fill:none" d="M 116.329 563.238L 110.664 561.945"/>
<path style="stroke:#d6d6d6; strokeWidth:0.8; fill:none" d="M 130.325 572.716C 129.028 571.995 127.341 570.868 125.682 570.265"/>
<path style="stroke:#d6d6d6; strokeWidth:0.8; fill:none" d="M 129 561.364C 127.867 561.902 126.244 562.814 123.531 563.225"/>
<path style="stroke:#ffffff; strokeWidth:0.8; fill:none" d="M 129.458 574.948C 125.589 572.971 119.871 570.634 115.909 569.277"/>
<path style="stroke:#d39293; strokeWidth:0.8; fill:none" d="M 116.164 569.376C 112.467 568.123 110.31 567.822 106.613 567.888"/>
<path style="stroke:#d6d6d6; strokeWidth:0.8; fill:none" d="M 134.179 578.373C 133.032 577.386 130.605 575.782 129.083 574.834"/>
<path style="stroke:#d39293; strokeWidth:0.8; fill:none" d="M 117.233 564.96L 109.947 564.206"/>
<path style="stroke:#faf8f6; strokeWidth:0.8; fill:none" d="M 217.958 566.892C 214.323 567.241 210.764 568.3 207.339 569.824"/>
<path style="stroke:#ffffff; strokeWidth:0.8; fill:none" d="M 205.773 566.437C 207.195 565.634 214.58 564.148 217.86 564.439"/>
<path style="stroke:#faf8f6; strokeWidth:0.8; fill:none" d="M 218.194 562.379C 214.972 562.325 210.574 561.888 207.215 560.282"/>
<path style="stroke:#d39293; strokeWidth:0.8; fill:none" d="M 216.77 564.557C 220.285 564.458 223.6 564.246 227.582 564.448"/>
<path style="stroke:#d39293; strokeWidth:0.8; fill:none" d="M 218.126 562.469L 226.181 561.905"/>
<path style="stroke:#d6d6d6; strokeWidth:0.8; fill:none" d="M 203.95 571.415C 205.715 570.669 207.105 569.856 208.406 569.382"/>
<path style="stroke:#d6d6d6; strokeWidth:0.8; fill:none" d="M 203.955 558.652C 204.844 559.55 206.118 560.238 207.447 560.694"/>
<path style="stroke:#faf8f6; strokeWidth:0.8; fill:none" d="M 217.784 569.326C 213.424 570.429 209.968 571.539 205.592 573.887"/>
<path style="stroke:#d39293; strokeWidth:0.8; fill:none" d="M 217.5 569.344C 221.296 568.765 223.244 568.411 226.763 568.455"/>
<path style="stroke:#d6d6d6; strokeWidth:0.8; fill:none" d="M 199.079 577.236C 200.32 576.24 204.379 574.37 206.029 573.734"/>
<path style="stroke:#d39293; strokeWidth:0.8; fill:none" d="M 217.311 566.924C 220.826 566.825 223.797 566.74 227.292 566.763"/>
</g>

</g>
</svg>